<svg width="50" height="50" viewBox="0 0 50 50" fill="none" xmlns="http://www.w3.org/2000/svg">
<path d="M0.000366211 16.0001C0.000366211 10.3995 0.000366211 7.59927 1.0903 5.46016C2.04903 3.57854 3.57884 2.04873 5.46046 1.09C7.59958 6.10352e-05 10.3998 6.10352e-05 16.0004 6.10352e-05H34.0004C39.6009 6.10352e-05 42.4012 6.10352e-05 44.5403 1.09C46.4219 2.04873 47.9517 3.57854 48.9104 5.46016C50.0004 7.59927 50.0004 10.3995 50.0004 16.0001V34.0001C50.0004 39.6006 50.0004 42.4008 48.9104 44.54C47.9517 46.4216 46.4219 47.9514 44.5403 48.9101C42.4012 50.0001 39.6009 50.0001 34.0004 50.0001H16.0004C10.3998 50.0001 7.59958 50.0001 5.46046 48.9101C3.57884 47.9514 2.04903 46.4216 1.0903 44.54C0.000366211 42.4008 0.000366211 39.6006 0.000366211 34.0001V16.0001Z" fill="#004B76"/>
<path d="M38.3913 21.1739C37.7152 20.0709 37.1463 18.902 36.5059 17.7762C36.3873 17.5674 36.2878 17.3568 36.2067 17.1391C36.4597 16.3424 36.6054 15.4535 36.6054 14.461C36.5417 13.057 35.6335 11.8145 34.5813 10.8624C34.9347 10.729 35.2287 10.586 35.4067 10.4508C33.6059 10.4508 31.827 9.53386 30.8464 9.53386C30.2147 9.53386 29.8108 9.91206 29.8108 10.4131C29.8518 10.9712 30.4223 11.5381 31.478 11.5381C31.7171 11.5381 32.0215 11.5074 32.3574 11.4503C32.9289 12.2506 33.3896 12.9754 33.3896 14.0091C33.3896 15.9457 31.0889 17.4568 28.7629 17.4586C28.6321 17.4586 28.5082 17.4524 28.3791 17.4436C28.1688 16.9636 27.4674 16.1563 27.4674 15.2385C27.4674 13.6976 28.4672 12.4393 28.4672 10.9133C28.4672 9.96383 28.0074 9.37678 27.8312 9.13284C28.1173 8.86608 28.4288 8.53877 28.503 8.31413C28.3363 8.38696 28.1383 8.39486 27.8521 8.39486C26.7362 8.39486 25.8271 8.10353 24.9407 8.10353C24.4347 8.10353 24.2986 8.26148 24.2986 8.40978C24.2986 8.46506 24.3065 8.52122 24.3213 8.54755C24.1328 8.47384 23.9557 8.4247 23.7455 8.38696C23.4837 8.33607 23.2028 8.3115 22.9018 8.3115C21.8252 8.3115 21.4422 8.76604 21.4422 9.15478C21.4422 9.48296 21.7005 10.084 21.9927 10.543C22.4115 10.3306 22.9167 10.1867 23.1461 10.1867C23.7184 10.1867 24.2271 10.7334 24.4958 11.3827C24.1119 11.4293 24.0386 11.4468 23.6495 11.4468C22.6008 11.4468 21.8872 11.0695 21.7397 11.0695C21.7258 11.0695 21.6978 11.0765 21.6978 11.1002C21.6978 11.2476 21.9953 11.639 22.5808 11.854C23.3529 12.1374 24.5097 12.2559 24.7026 12.2892C24.7026 12.3234 24.5071 12.6893 24.2873 12.7613C24.2419 12.7753 24.2053 12.7771 24.1503 12.7657C23.3433 12.606 23.1191 12.5384 22.0957 12.1471C22.0651 12.1348 22.0451 12.1549 22.0451 12.1874C22.0451 12.5946 23.0929 13.4931 24.0316 13.8389C23.2473 14.8454 22.2693 15.8755 21.806 17.4454C21.6752 17.4542 21.5486 17.4603 21.4178 17.4603C19.0901 17.4603 16.7859 15.9493 16.7859 14.01C16.7859 12.9772 17.2466 12.2524 17.818 11.4512C18.1539 11.5082 18.4584 11.5389 18.6975 11.5389C19.7531 11.5389 20.3246 10.9721 20.3647 10.414C20.3647 9.91294 19.9608 9.53473 19.3291 9.53473C18.3485 9.53473 16.5687 10.4517 14.7688 10.4517C14.9477 10.5869 15.2417 10.729 15.5942 10.8633C14.542 11.8154 13.6338 13.0579 13.5701 14.4619C13.5701 15.457 13.7167 16.3476 13.9705 17.1462C13.8903 17.3612 13.7908 17.57 13.6739 17.7762C13.0344 18.9029 12.4656 20.0718 11.7885 21.1739C10.8742 22.6639 10.376 24.4259 8.96703 25.5965V25.6939C9.82291 26.3274 10.6072 26.202 11.2389 25.3218C11.3698 25.1393 11.4832 24.9419 11.5931 24.7444C12.5554 23.0105 13.5125 21.2739 14.4792 19.5426C14.5551 19.4075 14.5882 19.117 14.8046 19.2241C14.9442 19.2925 14.9808 19.5628 14.9311 19.7594C14.9006 19.8822 14.8247 19.9945 14.7619 20.1069C13.5875 22.1839 12.4106 24.2601 11.2398 26.3389C11.0443 26.6863 10.787 26.9636 10.4493 27.1716C10.3062 27.2594 10.0829 27.3085 10.1405 27.5437C10.1928 27.7578 10.3856 27.8139 10.5819 27.8631C11.3165 28.0465 11.8383 27.8016 12.2841 27.0198C13.345 25.156 14.3963 23.2869 15.452 21.4205C15.513 21.3117 15.5532 21.1239 15.6971 21.1713C15.8358 21.2169 15.8655 21.4029 15.8385 21.5521C15.8193 21.6591 15.773 21.7662 15.7198 21.8627C14.6929 23.745 13.6678 25.6272 12.6313 27.5042C12.326 28.0579 11.9613 28.5695 11.4963 29.0065C11.3829 29.1126 11.1045 29.1161 11.1996 29.3759C11.2755 29.5838 11.4902 29.6233 11.6734 29.6655C11.8444 29.7049 12.0224 29.6865 12.1986 29.6383C12.8721 29.4557 13.2874 28.9801 13.612 28.3992C14.6415 26.5556 15.6692 24.7102 16.7013 22.8675C16.7763 22.7332 16.8086 22.5639 16.9692 22.484C17.2344 22.6946 17.162 22.9052 17.0215 23.1588C15.91 25.1595 14.8142 27.1698 13.7044 29.1714C13.3825 29.7523 13.0108 30.299 12.5109 30.7492C12.3984 30.851 12.0983 30.8387 12.2056 31.094C12.2946 31.3064 12.49 31.424 12.7395 31.4556C13.3764 31.5363 13.8606 31.2906 14.2113 30.6737C15.4808 28.4457 16.7484 26.2178 18.017 23.9898C18.0807 23.8775 18.1426 23.7643 18.2159 23.659C18.2613 23.594 18.3302 23.5265 18.4165 23.5695C18.5064 23.6142 18.578 23.7011 18.5396 23.8064C18.4898 23.9415 18.4174 24.0696 18.3485 24.1969C17.1245 26.4661 15.8987 28.7353 14.6737 31.0045C14.2995 31.6986 13.9034 32.3734 13.0824 32.6726C13.4192 33.0851 13.8144 33.1544 14.2445 33.0579C14.7906 32.9359 15.1824 32.613 15.4607 32.1137C16.84 29.6339 18.2325 27.1619 19.6258 24.69C19.713 24.5356 19.7933 24.2759 20.0367 24.389C20.3106 24.5163 20.1204 24.7172 20.0349 24.8769C18.6783 27.405 17.319 29.9313 15.9615 32.4594C15.5375 33.2483 15.0742 34.0003 14.2724 34.4689C14.0691 34.5882 14.1049 34.7014 14.2916 34.8173C14.7636 35.1086 15.2321 35.1068 15.7015 34.8216C16.1412 34.5549 16.4579 34.167 16.7039 33.7239L22.5459 23.874C22.6532 24.2451 22.7256 24.5979 22.7256 24.9489C22.7256 27.4656 22.039 29.6918 20.0951 31.4187C19.9564 31.5293 19.816 31.6381 19.672 31.7425C19.9023 32.0487 20.2025 31.9873 20.4877 31.9943C20.6448 31.9979 20.8472 31.9031 20.9423 32.0926C21.0208 32.2488 20.8751 32.3787 20.8036 32.5094C20.199 33.6107 19.508 34.6628 18.9636 35.7983C18.7559 36.2309 18.3738 36.3143 17.9524 36.2353C17.4638 36.144 16.9753 36.1607 16.4849 36.1695C15.8193 36.1809 15.5165 36.6539 15.78 37.283C15.9056 37.5823 16.0618 37.8674 16.2119 38.1755C16.4439 37.7981 16.4466 37.8078 16.9273 37.6753C17.0695 37.6367 17.1908 37.5235 17.3234 37.448C17.4699 37.3646 17.5956 37.226 17.832 37.2321C17.579 37.7051 17.1916 37.9929 16.8758 38.3431C16.7423 38.4905 16.5731 38.6432 16.6865 38.8634C16.9334 39.3408 17.1751 39.826 17.5903 40.2902C17.4909 39.6382 17.49 39.6356 17.9733 39.3864C18.0929 39.325 18.0719 39.2127 18.1068 39.1153C18.2578 38.6949 18.2569 38.2237 18.5457 37.8376C18.5945 38.3413 18.5937 38.8388 18.5945 39.3373C18.5945 39.4873 18.5684 39.633 18.7463 39.7321C19.166 39.9655 19.5743 40.22 19.9983 40.4719C20.0515 40.256 19.8875 40.1428 19.8325 39.991C19.7915 39.8769 19.6886 39.7602 19.7898 39.6488C20.0838 39.3267 19.9224 39.0328 19.7741 38.7195C19.6109 38.3746 19.4495 38.0236 19.3335 37.6604C19.1546 37.0988 19.4042 36.7767 19.9843 36.7767C20.2452 36.7767 20.5061 36.7793 20.7661 36.7908C21.4736 36.8215 21.4727 36.8241 21.5085 37.4989C21.5103 37.5375 21.5373 37.5761 21.5774 37.6788C21.9221 37.3181 22.0145 36.8346 22.3557 36.5293C22.6148 36.2976 22.5869 36.0168 22.3522 35.8044C22.1009 35.5763 21.9727 35.0647 21.4474 35.3552C21.0287 35.5868 20.5942 35.7904 20.1553 36.0115C20.1344 35.9273 20.1135 35.8931 20.1231 35.8703C20.5183 34.8962 21.2084 34.1346 21.9011 33.3746C22.039 33.2237 22.1358 33.279 22.1864 33.4606C22.2641 33.7432 22.3766 34.0117 22.5528 34.2469C22.5869 34.2916 22.6514 34.3399 22.7012 34.3399C22.8041 34.3399 22.7963 34.239 22.8032 34.167C22.8128 34.0758 22.8111 33.9828 22.8137 33.8897C22.832 33.1526 23.0772 32.4761 23.3756 31.8171C23.4349 31.6863 23.5195 31.5003 23.7019 31.5468C23.879 31.5924 23.7943 31.782 23.7996 31.9066C23.8109 32.1839 23.7987 32.462 23.7996 32.7393C23.8092 34.4206 23.7839 36.1002 23.4262 37.7525C23.0903 39.3048 22.4447 39.9647 21.0775 40.1779C21.3628 41.1467 22.148 41.5038 23.0781 41.0923C23.4157 40.9431 23.7394 40.5517 24.0168 40.5807C24.3265 40.6131 24.5996 41.0273 24.8832 41.2827C25.0446 41.4283 25.1894 41.4573 25.3517 41.2862C25.5907 41.0343 25.8184 40.6167 26.0836 40.5886C26.3611 40.5596 26.6647 40.9352 26.9779 41.0896C27.7605 41.4757 28.7848 41.0975 29.1233 40.3069C28.8973 40.2621 28.6696 40.2358 28.4532 40.1709C27.4551 39.8743 27.005 39.081 26.7633 38.1605C26.2259 36.1107 26.3192 34.0056 26.2922 31.9127C26.2913 31.8109 26.3236 31.6977 26.3986 31.6732C26.5356 31.6275 26.6202 31.7557 26.6865 31.8539C27.0774 32.4305 27.2117 33.0877 27.2667 33.7686C27.2833 33.974 27.1812 34.3171 27.3618 34.3478C27.6165 34.3917 27.675 34.0354 27.8032 33.8397C27.8198 33.8143 27.8364 33.7862 27.8408 33.7572C27.9141 33.3439 28.0885 33.3624 28.3276 33.6379C28.9017 34.2995 29.4801 34.9585 29.9451 35.7053C30.0437 35.8641 30.1964 36.0221 30.1118 36.2774C29.6738 36.0396 29.2288 35.8369 28.8266 35.5693C28.4663 35.3288 28.2168 35.392 27.9647 35.7062C27.7177 36.0142 27.5424 36.3108 27.8443 36.6907C28.0519 36.9522 28.2203 37.2435 28.4 37.6972C28.3363 37.1163 28.6356 37.0259 28.9688 36.9987C29.3815 36.9654 29.7951 36.9382 30.2086 36.9364C30.7094 36.9347 30.883 37.1681 30.7242 37.6428C30.5489 38.1649 30.3403 38.6747 30.144 39.1898C30.0952 39.318 29.98 39.4873 30.0891 39.5768C30.4302 39.8576 30.2924 40.1305 30.1388 40.4245C30.096 40.5052 30.0646 40.6052 30.1528 40.679C30.2409 40.7527 30.3255 40.7 30.4014 40.6465C30.6021 40.5052 30.794 40.3499 31.0025 40.2227C31.5059 39.9173 31.6446 39.4689 31.5147 38.9231C31.4257 38.5475 31.4867 38.1781 31.5208 37.7885C31.7729 38.6941 32.2493 39.4812 32.7186 40.227C33.6251 38.5528 33.8424 39.0977 32.689 37.9315C32.6794 37.921 32.6611 37.9192 32.6471 37.9131L32.2737 37.5331C32.2144 37.419 32.1559 37.3041 32.066 37.1295C32.4377 37.319 32.7308 37.5287 33.0554 37.6182C33.4576 37.7288 33.7952 37.8385 33.8057 38.336C33.8057 38.3457 33.8546 38.3545 33.8964 38.3703C34.1364 38.0351 34.3152 37.6612 34.4513 37.276C34.6485 36.7144 34.1591 36.1519 33.5745 36.223C33.1645 36.273 32.7422 36.2643 32.3435 36.359C31.7659 36.4959 31.4466 36.2142 31.184 35.7711C30.5663 34.7286 29.946 33.6879 29.3327 32.6437C29.2358 32.4787 29.043 32.3067 29.1669 32.104C29.3047 31.8785 29.5202 32.0321 29.7069 32.0733C29.7959 32.0926 29.8893 32.104 29.9809 32.1032C30.1301 32.1014 30.336 32.1488 30.3909 31.9829C30.4381 31.8408 30.2365 31.7846 30.1362 31.7013C29.7654 31.3959 29.4129 31.0756 29.0796 30.7395C27.723 29.1232 27.4586 27.147 27.4586 24.9489C27.4586 24.5997 27.5293 24.2495 27.6357 23.8801L33.4733 33.7239C33.7185 34.1662 34.036 34.554 34.4758 34.8216C34.9451 35.1068 35.4136 35.1086 35.8856 34.8173C36.0723 34.7023 36.1081 34.5882 35.9048 34.4689C35.1039 34.0003 34.6398 33.2474 34.2158 32.4594C32.8582 29.9322 31.499 27.405 30.1423 24.8769C30.0568 24.7172 29.8666 24.5172 30.1405 24.389C30.384 24.2759 30.4651 24.5356 30.5515 24.69C31.9448 27.1619 33.3372 29.6339 34.7165 32.1137C34.9949 32.613 35.3857 32.9368 35.9327 33.0579C36.3629 33.1535 36.7581 33.0842 37.0957 32.6726C36.2747 32.3734 35.8787 31.6986 35.5044 31.0045C34.2794 28.7353 33.0537 26.4661 31.8296 24.1969C31.7607 24.0696 31.6883 23.9415 31.6385 23.8064C31.6002 23.7002 31.6717 23.6133 31.7616 23.5695C31.8479 23.5265 31.9169 23.594 31.9622 23.659C32.0355 23.7643 32.0974 23.8783 32.1611 23.9898C33.4297 26.2178 34.6974 28.4466 35.9668 30.6737C36.3184 31.2897 36.8017 31.5354 37.4395 31.4556C37.689 31.424 37.8844 31.3064 37.9734 31.094C38.0807 30.8387 37.7806 30.851 37.6681 30.7492C37.1681 30.299 36.7965 29.7523 36.4745 29.1714C35.3639 27.1698 34.2681 25.1604 33.1575 23.1588C33.0161 22.9052 32.9446 22.6937 33.2098 22.484C33.3712 22.563 33.4026 22.7332 33.4777 22.8675C34.5098 24.7102 35.5367 26.5556 36.567 28.3992C36.8916 28.9801 37.306 29.4557 37.9804 29.6383C38.1575 29.6856 38.3355 29.7041 38.5056 29.6655C38.6888 29.6233 38.9034 29.5847 38.9793 29.3759C39.0744 29.1153 38.7961 29.1126 38.6827 29.0065C38.2177 28.5695 37.853 28.0579 37.5477 27.5042C36.5121 25.6272 35.4861 23.7441 34.4592 21.8627C34.4068 21.7662 34.3606 21.6591 34.3405 21.5521C34.3135 21.402 34.3431 21.2169 34.4819 21.1713C34.6258 21.1239 34.6659 21.3117 34.727 21.4205C35.7818 23.2869 36.834 25.156 37.8949 27.0198C38.3398 27.8016 38.8624 28.0456 39.597 27.8631C39.7942 27.8139 39.987 27.7578 40.0385 27.5437C40.0961 27.3076 39.8727 27.2594 39.7297 27.1716C39.392 26.9636 39.1346 26.6855 38.9392 26.3389C37.7675 24.2601 36.5906 22.1848 35.4171 20.1069C35.3534 19.9945 35.2784 19.8813 35.2479 19.7594C35.1981 19.5628 35.2348 19.2925 35.3744 19.2241C35.5907 19.117 35.6239 19.4075 35.6998 19.5426C36.6665 21.2739 37.6236 23.0105 38.5859 24.7444C38.6949 24.9419 38.8083 25.1384 38.9401 25.3218C39.5717 26.2011 40.3561 26.3266 41.2119 25.6939V25.5965C39.8029 24.4268 39.3039 22.6648 38.3904 21.1739H38.3913ZM16.936 11.2696C17.0389 11.2941 17.1428 11.3187 17.2457 11.3406C16.7894 11.9014 15.9824 12.8412 15.9824 14.0837C15.9824 16.553 18.6059 18.6967 21.5748 18.6967C21.5556 18.9082 21.546 19.1311 21.546 19.3592C21.546 19.7234 21.567 20.063 21.6019 20.3824C18.2429 20.3613 15.2862 17.62 15.2862 14.6672C15.2862 12.9816 16.5059 11.6451 16.936 11.2696ZM25.0236 11.6758C24.9198 11.238 24.6947 10.7878 24.4112 10.4482C24.152 10.1411 23.7245 9.77517 23.147 9.77517C22.8844 9.77517 22.442 9.8989 22.1611 10.0191C22.0555 9.82606 21.8514 9.36362 21.8514 9.15478C21.8514 8.94593 22.2126 8.72217 22.9027 8.72217C24.4216 8.72217 25.3281 9.41188 25.3281 10.5702C25.3281 10.9773 25.1676 11.3468 25.0236 11.6758ZM25.7059 10.1692C25.6509 9.84274 25.527 9.54614 25.3386 9.29167C25.349 8.99332 25.4712 8.70637 25.9502 8.94242C25.691 9.20918 25.8908 9.68128 25.8908 9.68128C25.8908 9.68128 26.4204 9.43382 26.3105 9.08194C27.0966 9.27061 26.5312 10.3324 25.7059 10.1692ZM29.0796 18.6958C32.0495 18.6958 34.6721 16.553 34.6721 14.0828C34.6721 12.8403 33.865 11.9005 33.4087 11.3398C33.5117 11.3178 33.6155 11.2941 33.7185 11.2687C34.1486 11.6451 35.3683 12.9807 35.3683 14.6664C35.3683 17.6191 32.4115 20.3604 29.0526 20.3815C29.0875 20.0621 29.1084 19.7225 29.1084 19.3583C29.1084 19.1293 29.0988 18.9073 29.0796 18.6958Z" fill="white"/>
</svg>
