<svg width="120" height="41" viewBox="0 0 120 41" fill="none" xmlns="http://www.w3.org/2000/svg">
<path d="M110.134 0.488076H9.53465C9.16795 0.488076 8.80565 0.488076 8.43992 0.490076C8.13377 0.492076 7.83006 0.497886 7.52098 0.502776C6.84949 0.510677 6.17959 0.569752 5.51708 0.679485C4.85551 0.791607 4.21466 1.00299 3.61621 1.30648C3.01849 1.61254 2.47234 2.01024 1.99756 2.48514C1.5203 2.9587 1.12246 3.50608 0.819347 4.10622C0.515399 4.70517 0.30464 5.347 0.194349 6.00954C0.0830107 6.67124 0.0230983 7.34057 0.01515 8.01153C0.00586998 8.31813 0.00488998 8.62575 0 8.93239V32.0466C0.00488998 32.3571 0.00586998 32.6579 0.01515 32.9685C0.0231007 33.6394 0.0830131 34.3087 0.194349 34.9704C0.304335 35.6333 0.515106 36.2755 0.819347 36.8747C1.12232 37.4729 1.52022 38.018 1.99756 38.489C2.47054 38.966 3.01704 39.3639 3.61621 39.6676C4.21465 39.972 4.85543 40.1846 5.51708 40.2984C6.1797 40.4073 6.84953 40.4664 7.52098 40.4752C7.83006 40.482 8.13377 40.4859 8.43992 40.4859C8.80564 40.4879 9.16797 40.4879 9.53465 40.4879H110.134C110.494 40.4879 110.859 40.4879 111.218 40.4859C111.523 40.4859 111.836 40.482 112.14 40.4752C112.81 40.4669 113.479 40.4078 114.14 40.2984C114.804 40.1838 115.447 39.9712 116.048 39.6676C116.647 39.3638 117.193 38.9658 117.666 38.489C118.142 38.0162 118.541 37.4714 118.847 36.8747C119.149 36.2751 119.358 35.6329 119.466 34.9704C119.578 34.3086 119.64 33.6395 119.652 32.9685C119.656 32.6579 119.656 32.3571 119.656 32.0466C119.664 31.6833 119.664 31.322 119.664 30.9528V10.0242C119.664 9.65797 119.664 9.29469 119.656 8.93239C119.656 8.62575 119.656 8.31813 119.652 8.01149C119.64 7.34048 119.578 6.67129 119.466 6.0095C119.358 5.34734 119.149 4.70557 118.847 4.10618C118.23 2.90326 117.251 1.9241 116.048 1.30639C115.447 1.00364 114.804 0.792315 114.14 0.679395C113.479 0.569178 112.811 0.510083 112.14 0.502636C111.836 0.497756 111.523 0.491896 111.218 0.489946C110.859 0.487946 110.494 0.487946 110.134 0.487946V0.488076Z" fill="#A6A6A6"/>
<path d="M8.44481 39.613C8.14013 39.613 7.84281 39.6091 7.54052 39.6023C6.9143 39.5941 6.28955 39.5396 5.67139 39.4392C5.09498 39.3399 4.53659 39.1552 4.01465 38.8913C3.49749 38.6295 3.02581 38.2862 2.61766 37.8747C2.2036 37.4679 1.85887 36.9962 1.59715 36.4782C1.33254 35.9568 1.14941 35.3979 1.05415 34.821C0.951275 34.2011 0.895615 33.5743 0.887651 32.946C0.881311 32.7351 0.873011 32.0329 0.873011 32.0329V8.93239C0.873011 8.93239 0.881851 8.24098 0.887701 8.03785C0.895326 7.41054 0.950663 6.78471 1.05323 6.16579C1.14867 5.58731 1.33194 5.02681 1.59669 4.50369C1.85745 3.98601 2.20026 3.51393 2.61183 3.10575C3.02293 2.69369 3.49612 2.34868 4.01416 2.08328C4.5349 1.82017 5.09223 1.63681 5.66748 1.53934C6.28767 1.43791 6.91459 1.38307 7.54298 1.37529L8.4453 1.36308H111.214L112.127 1.37578C112.749 1.38317 113.371 1.43753 113.985 1.53836C114.566 1.63705 115.129 1.82169 115.656 2.08621C116.694 2.62106 117.538 3.46723 118.071 4.50614C118.331 5.02564 118.512 5.58157 118.606 6.15505C118.71 6.77905 118.768 7.40979 118.78 8.04225C118.783 8.32545 118.783 8.62965 118.783 8.93239C118.791 9.30739 118.791 9.66432 118.791 10.0242V30.9528C118.791 31.3161 118.791 31.6706 118.783 32.028C118.783 32.3532 118.783 32.6511 118.779 32.9577C118.767 33.5788 118.71 34.1983 118.608 34.8112C118.515 35.3922 118.333 35.9555 118.068 36.4812C117.804 36.9936 117.462 37.4612 117.052 37.8669C116.644 38.2806 116.171 38.6259 115.653 38.8894C115.128 39.1553 114.565 39.3407 113.985 39.4392C113.367 39.5401 112.742 39.5946 112.116 39.6023C111.823 39.6091 111.516 39.613 111.218 39.613L110.134 39.615L8.44481 39.613Z" fill="black"/>
<path d="M24.7689 20.7888C24.7796 19.9541 25.0013 19.1357 25.4134 18.4098C25.8254 17.6838 26.4143 17.0739 27.1254 16.6367C26.6737 15.9915 26.0778 15.4606 25.3849 15.086C24.6921 14.7115 23.9215 14.5036 23.1343 14.479C21.455 14.3028 19.8271 15.4838 18.9714 15.4838C18.0991 15.4838 16.7816 14.4965 15.3629 14.5257C14.4452 14.5554 13.5509 14.8222 12.767 15.3003C11.9831 15.7783 11.3364 16.4513 10.89 17.2536C8.95596 20.602 10.3985 25.523 12.2512 28.2297C13.1781 29.555 14.2613 31.0355 15.6788 30.983C17.0658 30.9254 17.5839 30.0985 19.2582 30.0985C20.917 30.0985 21.403 30.983 22.8492 30.9496C24.3376 30.9254 25.2753 29.6183 26.1697 28.2804C26.8357 27.3361 27.3481 26.2924 27.6881 25.1879C26.8234 24.8222 26.0855 24.21 25.5664 23.4277C25.0472 22.6454 24.7699 21.7276 24.7689 20.7888V20.7888Z" fill="white"/>
<path d="M22.0373 12.699C22.8488 11.7248 23.2486 10.4726 23.1518 9.20834C21.9119 9.33856 20.7667 9.93112 19.9442 10.868C19.542 11.3256 19.2341 11.8581 19.0378 12.4348C18.8416 13.0116 18.7609 13.6214 18.8005 14.2293C19.4206 14.2357 20.0341 14.1013 20.5948 13.8362C21.1554 13.5711 21.6487 13.1823 22.0373 12.699Z" fill="white"/>
<path d="M42.3023 27.6277H37.5689L36.4322 30.9842H34.4273L38.9107 18.5662H40.9937L45.4771 30.9842H43.438L42.3023 27.6277ZM38.0591 26.0789H41.8111L39.9615 20.6316H39.9097L38.0591 26.0789Z" fill="white"/>
<path d="M55.1597 26.4578C55.1597 29.2713 53.6538 31.0789 51.3814 31.0789C50.8057 31.109 50.2332 30.9764 49.7294 30.6963C49.2256 30.4161 48.8109 29.9998 48.5327 29.4949H48.4897V33.9793H46.6313V21.9305H48.4302V23.4363H48.4644C48.7553 22.9339 49.1771 22.5197 49.6847 22.2378C50.1923 21.956 50.7669 21.817 51.3472 21.8357C53.645 21.8357 55.1597 23.6521 55.1597 26.4578ZM53.2495 26.4578C53.2495 24.6248 52.3023 23.4197 50.8569 23.4197C49.437 23.4197 48.4819 24.6502 48.4819 26.4578C48.4819 28.282 49.437 29.5037 50.8569 29.5037C52.3023 29.5037 53.2495 28.3074 53.2495 26.4578Z" fill="white"/>
<path d="M65.1245 26.4578C65.1245 29.2713 63.6187 31.0789 61.3462 31.0789C60.7706 31.109 60.1981 30.9764 59.6943 30.6963C59.1905 30.4161 58.7757 29.9998 58.4976 29.4949H58.4546V33.9793H56.5962V21.9305H58.395V23.4363H58.4292C58.7201 22.9339 59.1419 22.5197 59.6495 22.2378C60.1571 21.956 60.7317 21.817 61.312 21.8357C63.6099 21.8357 65.1245 23.6521 65.1245 26.4578ZM63.2144 26.4578C63.2144 24.6248 62.2671 23.4197 60.8218 23.4197C59.4019 23.4197 58.4468 24.6502 58.4468 26.4578C58.4468 28.282 59.4019 29.5037 60.8218 29.5037C62.2671 29.5037 63.2144 28.3074 63.2144 26.4578H63.2144Z" fill="white"/>
<path d="M71.7105 27.5242C71.8482 28.7557 73.0445 29.5642 74.6792 29.5642C76.2456 29.5642 77.3726 28.7556 77.3726 27.6453C77.3726 26.6814 76.6929 26.1043 75.0835 25.7087L73.4742 25.321C71.1939 24.7703 70.1353 23.7038 70.1353 21.9734C70.1353 19.8308 72.0025 18.3591 74.6538 18.3591C77.2778 18.3591 79.0767 19.8308 79.1372 21.9734H77.2612C77.1489 20.7341 76.1245 19.9861 74.6274 19.9861C73.1304 19.9861 72.106 20.7429 72.106 21.8445C72.106 22.7224 72.7603 23.239 74.3608 23.6345L75.729 23.9704C78.2768 24.573 79.3354 25.5964 79.3354 27.4128C79.3354 29.736 77.4849 31.1911 74.5415 31.1911C71.7876 31.1911 69.9282 29.7702 69.8081 27.5241L71.7105 27.5242Z" fill="white"/>
<path d="M83.3459 19.7878V21.9304H85.0676V23.4021H83.3459V28.3933C83.3459 29.1687 83.6907 29.53 84.4475 29.53C84.6519 29.5264 84.856 29.5121 85.0588 29.487V30.9499C84.7186 31.0135 84.3727 31.0423 84.0266 31.0358C82.1936 31.0358 81.4788 30.3473 81.4788 28.5915V23.4021H80.1624V21.9304H81.4787V19.7878H83.3459Z" fill="white"/>
<path d="M86.0647 26.4577C86.0647 23.6091 87.7424 21.8191 90.3587 21.8191C92.9837 21.8191 94.6536 23.6091 94.6536 26.4577C94.6536 29.3142 92.9925 31.0964 90.3587 31.0964C87.7258 31.0964 86.0647 29.3142 86.0647 26.4577ZM92.76 26.4577C92.76 24.5036 91.8645 23.3503 90.3587 23.3503C88.8528 23.3503 87.9583 24.5124 87.9583 26.4577C87.9583 28.4196 88.8528 29.5642 90.3587 29.5642C91.8645 29.5642 92.76 28.4196 92.76 26.4577H92.76Z" fill="white"/>
<path d="M96.1857 21.9304H97.9582V23.4714H98.0012C98.1211 22.9901 98.4031 22.5648 98.7997 22.2669C99.1963 21.969 99.6833 21.8167 100.179 21.8356C100.393 21.8349 100.607 21.8582 100.816 21.905V23.6433C100.545 23.5607 100.263 23.5227 99.9807 23.531C99.7107 23.52 99.4415 23.5676 99.1917 23.6705C98.9418 23.7734 98.7172 23.9291 98.5332 24.127C98.3493 24.3249 98.2103 24.5603 98.1259 24.8169C98.0414 25.0736 98.0136 25.3455 98.0441 25.614V30.9841H96.1857L96.1857 21.9304Z" fill="white"/>
<path d="M109.384 28.3249C109.134 29.9685 107.533 31.0964 105.486 31.0964C102.852 31.0964 101.217 29.3317 101.217 26.5007C101.217 23.6609 102.861 21.8191 105.407 21.8191C107.912 21.8191 109.487 23.5398 109.487 26.2849V26.9216H103.093V27.0339C103.063 27.3671 103.105 27.7028 103.215 28.0186C103.326 28.3344 103.502 28.6232 103.732 28.8658C103.962 29.1083 104.242 29.2991 104.551 29.4254C104.861 29.5517 105.194 29.6107 105.529 29.5984C105.968 29.6395 106.408 29.5378 106.785 29.3083C107.162 29.0789 107.454 28.734 107.619 28.3249L109.384 28.3249ZM103.102 25.6228H107.628C107.645 25.3232 107.599 25.0234 107.495 24.7422C107.39 24.4609 107.228 24.2044 107.02 23.9886C106.811 23.7729 106.56 23.6025 106.283 23.4883C106.005 23.3741 105.707 23.3185 105.407 23.3249C105.105 23.3231 104.805 23.3813 104.525 23.496C104.245 23.6107 103.99 23.7798 103.776 23.9934C103.561 24.2071 103.392 24.461 103.276 24.7407C103.16 25.0204 103.101 25.3201 103.102 25.6228V25.6228Z" fill="white"/>
<path d="M39.3926 15.1858H35.6709V9.21908H36.5977V14.3338H39.3926V15.1858Z" fill="white"/>
<path d="M40.3291 13.9124C40.3291 13.1018 40.9326 12.6346 42.0039 12.5682L43.2237 12.4978V12.1092C43.2237 11.6336 42.9092 11.365 42.3018 11.365C41.8057 11.365 41.4619 11.5472 41.3633 11.8655H40.5029C40.5938 11.0921 41.3213 10.596 42.3428 10.596C43.4717 10.596 44.1084 11.158 44.1084 12.1092V15.1858H43.2529V14.553H43.1826C43.0399 14.78 42.8395 14.9651 42.6019 15.0893C42.3643 15.2135 42.0979 15.2724 41.8301 15.26C41.6411 15.2797 41.45 15.2595 41.2692 15.2008C41.0885 15.1421 40.922 15.0462 40.7806 14.9192C40.6392 14.7923 40.526 14.6371 40.4482 14.4636C40.3704 14.2902 40.3299 14.1024 40.3291 13.9124V13.9124ZM43.2237 13.5276V13.1512L42.124 13.2215C41.5039 13.263 41.2226 13.4739 41.2226 13.8709C41.2226 14.2762 41.5742 14.512 42.0576 14.512C42.1993 14.5263 42.3424 14.512 42.4784 14.47C42.6144 14.4279 42.7405 14.3588 42.8493 14.267C42.9581 14.1752 43.0473 14.0624 43.1116 13.9354C43.1759 13.8083 43.214 13.6697 43.2237 13.5276V13.5276Z" fill="white"/>
<path d="M45.2764 12.9324C45.2764 11.5096 46.0078 10.6082 47.1455 10.6082C47.4269 10.5952 47.7062 10.6626 47.9508 10.8025C48.1953 10.9424 48.3949 11.149 48.5264 11.3982H48.5928V8.92508H49.4815V15.1858H48.6299V14.4744H48.5596C48.418 14.7219 48.2114 14.9259 47.9621 15.0644C47.7129 15.2029 47.4305 15.2705 47.1455 15.26C46 15.2601 45.2764 14.3587 45.2764 12.9324ZM46.1944 12.9324C46.1944 13.8875 46.6446 14.4622 47.3975 14.4622C48.1465 14.4622 48.6094 13.8792 48.6094 12.9363C48.6094 11.9978 48.1417 11.4065 47.3975 11.4065C46.6494 11.4065 46.1944 11.9851 46.1944 12.9324H46.1944Z" fill="white"/>
<path d="M54.7471 13.97C54.6264 14.3815 54.3648 14.7375 54.0081 14.9757C53.6514 15.2138 53.2223 15.319 52.7959 15.2727C52.4993 15.2806 52.2044 15.2237 51.9319 15.1062C51.6594 14.9887 51.4158 14.8133 51.2179 14.5921C51.02 14.371 50.8725 14.1094 50.7858 13.8256C50.6992 13.5418 50.6753 13.2425 50.7158 12.9485C50.6763 12.6536 50.7007 12.3537 50.7871 12.069C50.8736 11.7844 51.0203 11.5216 51.2171 11.2985C51.414 11.0755 51.6565 10.8973 51.9282 10.7761C52.1999 10.6549 52.4945 10.5934 52.792 10.596C54.0449 10.596 54.8008 11.452 54.8008 12.866V13.1761H51.6211V13.2259C51.6072 13.3911 51.628 13.5575 51.6821 13.7142C51.7362 13.8709 51.8225 14.0147 51.9354 14.1361C52.0483 14.2576 52.1854 14.3541 52.3377 14.4195C52.4901 14.4849 52.6545 14.5177 52.8203 14.5159C53.0329 14.5414 53.2483 14.5031 53.439 14.4059C53.6298 14.3087 53.7873 14.157 53.8916 13.97L54.7471 13.97ZM51.6211 12.5188H53.8955C53.9067 12.3677 53.8862 12.2159 53.8352 12.0732C53.7843 11.9305 53.704 11.8 53.5996 11.6901C53.4952 11.5803 53.369 11.4935 53.2291 11.4353C53.0892 11.3771 52.9386 11.3489 52.7871 11.3523C52.6334 11.3504 52.4809 11.3793 52.3385 11.4372C52.1961 11.4952 52.0668 11.581 51.9581 11.6897C51.8495 11.7984 51.7637 11.9278 51.7058 12.0702C51.6479 12.2126 51.6191 12.3651 51.6211 12.5188H51.6211Z" fill="white"/>
<path d="M55.9942 10.6829H56.8496V11.3982H56.916C57.0287 11.1413 57.2187 10.9259 57.4595 10.7821C57.7004 10.6383 57.9801 10.5732 58.2598 10.596C58.4788 10.5795 58.6988 10.6125 58.9034 10.6926C59.108 10.7727 59.292 10.8978 59.4417 11.0587C59.5914 11.2195 59.7029 11.412 59.7681 11.6218C59.8333 11.8316 59.8505 12.0534 59.8183 12.2708V15.1858H58.9297V12.4939C58.9297 11.7703 58.6152 11.4104 57.958 11.4104C57.8092 11.4035 57.6607 11.4288 57.5227 11.4847C57.3846 11.5405 57.2603 11.6255 57.1581 11.7339C57.056 11.8423 56.9785 11.9715 56.931 12.1126C56.8835 12.2537 56.867 12.4035 56.8828 12.5515V15.1858H55.9941L55.9942 10.6829Z" fill="white"/>
<path d="M63.5195 9.35136C63.5127 9.23626 63.5406 9.12175 63.5995 9.02267C63.6585 8.92359 63.7459 8.8445 63.8503 8.79565C63.9548 8.74679 64.0715 8.73043 64.1853 8.74867C64.2992 8.76691 64.4049 8.81891 64.4889 8.89795C64.5728 8.97698 64.6311 9.07941 64.6562 9.19195C64.6813 9.3045 64.672 9.42198 64.6295 9.52918C64.587 9.63638 64.5134 9.72835 64.418 9.7932C64.3227 9.85804 64.2101 9.89276 64.0947 9.89286C64.0211 9.89662 63.9474 9.88543 63.8781 9.85998C63.8088 9.83453 63.7454 9.79533 63.6917 9.74475C63.638 9.69417 63.595 9.63324 63.5654 9.56564C63.5359 9.49804 63.5202 9.42515 63.5195 9.35136V9.35136ZM63.6524 10.6829H64.5371V15.1858H63.6524V10.6829Z" fill="white"/>
<path d="M65.9712 10.6829H66.8267V11.4065H66.8931C67.0002 11.1653 67.1749 10.9603 67.3962 10.8164C67.6175 10.6725 67.8757 10.596 68.1397 10.596C68.4036 10.596 68.6619 10.6725 68.8831 10.8164C69.1044 10.9603 69.2792 11.1653 69.3863 11.4065H69.4566C69.5823 11.1537 69.7784 10.9427 70.0213 10.7989C70.2643 10.6551 70.5436 10.5846 70.8257 10.596C71.023 10.5798 71.2215 10.6077 71.4068 10.6775C71.5921 10.7473 71.7595 10.8573 71.8971 10.9997C72.0347 11.1421 72.139 11.3132 72.2025 11.5007C72.266 11.6883 72.287 11.8876 72.2642 12.0843V15.1858H71.3755V12.3162C71.3755 11.7083 71.0855 11.4104 70.5025 11.4104C70.3769 11.4051 70.2516 11.4257 70.1343 11.4711C70.0171 11.5165 69.9105 11.5856 69.8213 11.6741C69.732 11.7627 69.6621 11.8687 69.6158 11.9856C69.5695 12.1025 69.5479 12.2277 69.5523 12.3533V15.1858H68.6793V12.2293C68.6849 12.116 68.6659 12.0028 68.6235 11.8976C68.5812 11.7924 68.5165 11.6976 68.434 11.6197C68.3515 11.5419 68.2531 11.4829 68.1455 11.4468C68.038 11.4106 67.9239 11.3982 67.8111 11.4104C67.6808 11.4126 67.5523 11.441 67.4333 11.494C67.3142 11.547 67.207 11.6234 67.1182 11.7188C67.0294 11.8142 66.9608 11.9265 66.9164 12.049C66.872 12.1716 66.8528 12.3018 66.86 12.4319V15.1858H65.9713L65.9712 10.6829Z" fill="white"/>
</svg>
