<svg width="48" height="48" viewBox="0 0 48 48" fill="none" xmlns="http://www.w3.org/2000/svg">
<path d="M0 15.36C0 9.98352 0 7.29523 1.0463 5.2417C1.96675 3.43536 3.43536 1.96675 5.2417 1.0463C7.29523 0 9.98352 0 15.36 0H32.64C38.0165 0 40.7048 0 42.7583 1.0463C44.5646 1.96675 46.0332 3.43536 46.9537 5.2417C48 7.29523 48 9.98352 48 15.36V32.64C48 38.0165 48 40.7048 46.9537 42.7583C46.0332 44.5646 44.5646 46.0332 42.7583 46.9537C40.7048 48 38.0165 48 32.64 48H15.36C9.98352 48 7.29523 48 5.2417 46.9537C3.43536 46.0332 1.96675 44.5646 1.0463 42.7583C0 40.7048 0 38.0165 0 32.64V15.36Z" fill="#004B76"/>
<path d="M37.1439 19.8349C38.7004 22.2629 39.9196 22.2213 41.76 22.2213C40.2369 21.0705 39.2298 19.5977 38.7497 18.8457L35.9057 14.36C35.6277 12.9739 34.9012 11.6791 33.8128 10.7157C34.1788 10.5786 34.4829 10.4352 34.6666 10.2988C32.8093 10.2988 30.9687 9.36881 29.9558 9.36881C29.3048 9.36881 28.8859 9.75234 28.8859 10.2595C28.9281 10.8241 29.5174 11.3998 30.6076 11.3998C30.8553 11.3998 31.1707 11.3675 31.5178 11.3107C32.1084 12.1218 32.5841 12.8551 32.5841 13.9009C32.5841 15.865 30.2018 17.3953 27.7969 17.3953C27.6608 17.3953 27.5319 17.3905 27.3959 17.38C27.1779 16.894 26.4537 16.0753 26.4537 15.1465C26.4537 13.5859 27.4862 12.3116 27.4862 10.7654C27.4862 9.80504 27.0109 9.21061 26.828 8.9636C27.1232 8.69297 27.4464 8.36091 27.5212 8.13358C27.3501 8.20635 27.1469 8.21624 26.8493 8.21624C25.6967 8.21624 24.7574 7.91998 23.8407 7.91998C23.3191 7.91998 23.1778 8.07982 23.1778 8.2315C23.1778 8.28593 23.1866 8.34334 23.2016 8.3708C23.0067 8.29477 22.8237 8.24667 22.6063 8.20635C22.3366 8.15595 22.0449 8.13022 21.7346 8.13022C20.622 8.13022 20.2263 8.59045 20.2263 8.98453C20.2263 9.31842 20.4925 9.92744 20.7949 10.3906C21.2291 10.1763 21.7496 10.03 21.9883 10.03C22.5782 10.03 23.104 10.5845 23.3826 11.2422C22.9853 11.289 22.9093 11.3065 22.5077 11.3065C21.424 11.3065 20.6868 10.9236 20.534 10.9236C20.5191 10.9236 20.4907 10.9312 20.4907 10.9546C20.4907 11.1046 20.7977 11.5004 21.4038 11.7183C22.2017 12.0063 23.3976 12.1264 23.5967 12.1587C23.5967 12.1931 23.3941 12.5657 23.1683 12.6366C23.1202 12.6517 23.0827 12.6536 23.0274 12.6424C22.1933 12.4802 21.9611 12.4112 20.9036 12.014C20.8709 12.0023 20.8519 12.0223 20.8519 12.0561C20.8519 12.4679 21.9349 13.378 22.9045 13.7264C22.0948 14.7465 21.0823 15.7895 20.6053 17.38C20.4705 17.3905 20.3398 17.3953 20.2037 17.3953C17.7993 17.3953 15.4165 15.865 15.4165 13.9009C15.4165 12.8551 15.8935 12.1218 16.4841 11.3107C16.8303 11.3675 17.1459 11.3998 17.3931 11.3998C18.4833 11.3998 19.0731 10.8241 19.1166 10.2595C19.1166 9.75234 18.6977 9.36881 18.0447 9.36881C17.0318 9.36881 15.1931 10.2988 13.3341 10.2988C13.5177 10.4352 13.8225 10.5786 14.1877 10.7157C13.0994 11.6791 12.3729 12.9739 12.0949 14.36L9.25143 18.8457C8.77258 19.5977 7.76257 21.0705 6.24001 22.2213C8.08042 22.2213 9.30077 22.2629 10.8579 19.8349L12.3158 17.5352C12.4239 17.8338 12.5571 18.1244 12.7126 18.4089L9.81293 22.9826C9.33044 23.7416 8.3306 25.2028 6.80141 26.3594C8.64193 26.3594 9.86161 26.4015 11.4181 23.9752L13.9151 20.0359C14.1017 20.2321 14.2983 20.4241 14.5056 20.6069L10.9826 26.1661C10.4986 26.9257 9.50401 28.3827 7.97165 29.5393C9.81226 29.5393 11.0319 29.5832 12.5892 27.1551L16.0231 21.7359C16.2493 21.8758 16.4811 22.0134 16.7199 22.143L12.5278 28.7539C12.0444 29.5152 11.0492 30.9681 9.51812 32.1271C11.3581 32.1271 12.5783 32.1698 14.1349 29.7442L18.4511 22.9328C18.7065 23.0302 18.9655 23.1221 19.2294 23.2059L14.3519 30.9008C13.8754 31.6505 12.8576 33.1285 11.3426 34.274C13.182 34.274 14.4024 34.3143 15.9589 31.8898L21.1573 23.6883C21.2101 23.6978 21.2629 23.7058 21.3141 23.7165C21.4555 24.1604 21.5547 24.5733 21.5547 24.9861C21.5547 27.5622 19.839 29.8392 17.7799 31.5959C17.9111 31.6527 18.141 31.672 18.3531 31.672C18.7778 31.672 19.0529 31.6505 19.2447 31.6164C18.7678 32.6852 17.7435 34.0655 17.2261 34.7806C16.5511 34.6605 15.5709 34.5668 14.9286 34.5668C14.2568 34.5668 14.1807 34.9545 14.1807 35.3C14.1807 35.9014 14.466 36.3804 14.7992 36.6469C14.9226 36.3394 15.1741 35.9284 16.4157 35.9284C16.4394 35.9284 16.4822 35.9307 16.5404 35.9355C16.177 36.3336 15.041 37.2384 15.041 37.9674C15.041 38.4507 15.5786 39.1738 16.2861 39.1738C16.2441 39.0187 16.2499 38.8752 16.2499 38.768C16.2499 38.1772 16.7798 37.4856 17.2289 37.0042C17.2154 37.1477 17.2219 37.133 17.2219 37.2998C17.2219 38.6966 17.3502 39.3378 18.2492 39.3378C18.6905 39.3378 18.9948 39.0989 19.0992 39.0275C18.5153 38.4975 18.4849 38.0816 18.4849 37.2982C18.4867 37.095 18.4874 36.8959 18.4903 36.6205C18.4927 36.4421 18.4898 36.2048 18.4599 36.0332C18.7819 35.9892 18.9121 35.9892 19.1599 35.9892C19.1599 35.9892 20.4366 35.8904 20.7444 36.5444C21.0913 36.2311 21.5945 35.789 21.5945 35.3011C21.5945 34.9797 21.4394 34.6148 20.7818 34.6148C20.5328 34.6148 19.7492 34.7659 19.0933 34.7659C19.2692 34.3794 20.054 33.2492 20.7331 32.4287C20.8357 32.7466 20.9963 33.0904 21.3527 33.3715C21.4014 32.8445 21.7156 31.1761 22.5521 30.2011C22.649 30.8592 22.7802 31.5356 22.7802 32.9623C22.7802 36.4302 21.9349 38.9923 20.1383 39.4813C20.3724 39.8825 20.8662 40.2426 21.3795 40.2426C22.0359 40.2426 22.3941 39.5105 22.7589 38.8196C22.9491 39.329 23.4742 40.5793 24 40.5793C24.5258 40.5793 25.0516 39.329 25.2417 38.8196C25.6066 39.5105 25.9641 40.2426 26.6211 40.2426C27.1344 40.2426 27.6293 39.8825 27.8628 39.4813C26.0669 38.9923 25.2203 36.4302 25.2203 32.9623C25.2203 31.5356 25.351 30.8592 25.4479 30.2011C26.2848 31.1761 26.5998 32.8445 26.6479 33.3715C27.005 33.0904 27.1659 32.7466 27.2681 32.4287C27.9472 33.2492 28.7314 34.3794 28.9079 34.7659C28.2514 34.7659 27.4684 34.6148 27.2195 34.6148C26.5624 34.6148 26.4066 34.9797 26.4066 35.3011C26.4066 35.789 26.9105 36.2311 27.2569 36.5444C27.5641 35.8904 28.842 35.9892 28.842 35.9892C29.0891 35.9892 29.2191 35.9892 29.5419 36.0332C29.5115 36.2048 29.5097 36.4421 29.5108 36.6205C29.5139 36.8959 29.5151 37.095 29.5157 37.2982C29.5157 38.0816 29.4859 38.4975 28.9019 39.0275C29.0071 39.0989 29.3113 39.3378 29.7515 39.3378C30.6509 39.3378 30.7792 38.6966 30.7792 37.2998C30.7792 37.133 30.7846 37.1477 30.7727 37.0042C31.2207 37.4856 31.7519 38.1772 31.7519 38.768C31.7519 38.8752 31.7578 39.0187 31.7145 39.1738C32.4232 39.1738 32.9608 38.4507 32.9608 37.9674C32.9608 37.2384 31.8243 36.3336 31.4607 35.9355C31.5195 35.9307 31.5617 35.9284 31.5849 35.9284C32.8278 35.9284 33.078 36.3394 33.2027 36.6469C33.5346 36.3804 33.8198 35.9014 33.8198 35.3C33.8198 34.9545 33.7444 34.5668 33.0725 34.5668C32.4303 34.5668 31.45 34.6605 30.7751 34.7806C30.2578 34.0655 29.234 32.6852 28.7558 31.6164C28.9482 31.6505 29.224 31.672 29.6476 31.672C29.8608 31.672 30.0896 31.6527 30.2214 31.5959C28.1623 29.8392 26.4466 27.5622 26.4466 24.9861C26.4466 24.5733 26.5457 24.1604 26.6866 23.7165C26.7382 23.7058 26.7916 23.6978 26.8439 23.6883L32.0417 31.8898C33.5983 34.3143 34.8192 34.274 36.658 34.274C35.143 33.1285 34.1259 31.6505 33.6506 30.9008L28.7712 23.2059C29.0356 23.1221 29.2947 23.0302 29.5501 22.9328L33.8662 29.7442C35.4228 32.1698 36.6424 32.1271 38.4835 32.1271C36.9514 30.9681 35.9569 29.5152 35.4733 28.7539L31.2813 22.143C31.5195 22.0134 31.7525 21.8758 31.9769 21.7359L35.4127 27.1551C36.9698 29.5832 38.1889 29.5393 40.0283 29.5393C38.4972 28.3827 37.5033 26.9257 37.0186 26.1661L33.4962 20.6069C33.7035 20.4241 33.9008 20.2321 34.0856 20.0359L36.583 23.9752C38.1397 26.4015 39.3587 26.3594 41.1998 26.3594C39.6694 25.2028 38.672 23.7416 38.1889 22.9826L35.2885 18.4089C35.4447 18.1244 35.5772 17.8338 35.686 17.5352L37.1439 19.8349ZM13.8646 14.5685C13.8646 12.8597 15.1248 11.5074 15.5691 11.1268C15.6761 11.1525 15.7824 11.1777 15.8881 11.1994C15.4165 11.7669 14.5841 12.7179 14.5841 13.9776C14.5841 16.4776 17.295 18.6497 20.3635 18.6497C20.3439 18.8634 20.3333 19.0889 20.3333 19.3203C20.3333 19.689 20.3533 20.0328 20.3909 20.3568C16.9207 20.3362 13.8646 17.5592 13.8646 14.5685ZM18.5669 35.0675L18.5473 35.1254H18.608C19.5823 35.1254 20.0563 35.0569 20.3707 35.012C20.5358 34.9914 20.6534 34.9738 20.7818 34.9738C21.033 34.9738 21.2262 34.9973 21.2262 35.3011C21.2262 35.5079 20.982 35.8329 20.7461 36.0221C20.3861 35.6876 19.8895 35.6221 19.1599 35.6221C18.8183 35.6221 18.3714 35.6817 18.1314 35.7158L18.0941 35.7199L18.0519 35.7257L18.0655 35.8387C18.0941 36.0378 18.1285 36.2857 18.1285 36.6188L18.1243 36.9222L18.1208 37.2982C18.1208 38.1139 18.2342 38.5794 18.5236 38.9309C18.4487 38.959 18.3275 38.9806 18.2492 38.9806C17.7359 38.9806 17.5866 38.7599 17.5866 37.2998C17.5866 37.007 17.5707 36.7318 17.5599 36.5486L17.5457 36.278L17.4804 36.3278C16.7169 36.9017 15.9302 37.9265 15.8834 38.6936C15.6528 38.5473 15.4039 38.2193 15.4039 37.9674C15.4039 37.5488 16.0421 36.921 16.7811 36.193L17.2065 35.7743L17.2599 35.7199L17.1204 35.6865C16.9618 35.6455 16.6664 35.5723 16.4157 35.5723C15.5864 35.5723 15.0683 35.7257 14.7474 36.0701C14.6334 35.9061 14.5365 35.5242 14.5365 35.3C14.5365 35.1554 14.5657 35.0523 14.6245 34.9936C14.6969 34.9252 14.8093 34.9252 14.9079 34.9252H14.9286C15.8412 34.9252 16.9332 35.0873 17.3598 35.1554L17.3847 35.1612L17.4007 35.1407C17.4744 35.0424 19.2151 32.7572 19.6679 31.5451C19.7711 31.507 19.8621 31.477 20.0433 31.477C20.3861 31.477 20.4811 31.7061 20.5804 32.0539C19.4913 33.3568 18.8141 34.37 18.5669 35.0675ZM27.9574 31.477C28.1397 31.477 28.2289 31.507 28.3339 31.5451C28.7861 32.7572 30.5268 35.0424 30.5999 35.1407L30.6159 35.1612L30.6421 35.1554C31.0687 35.0873 32.1593 34.9252 33.0725 34.9252H33.0927C33.192 34.9252 33.3042 34.9252 33.376 34.9936C33.4349 35.0523 33.4645 35.1554 33.4645 35.3C33.4645 35.5242 33.3684 35.9061 33.2532 36.0701C32.9329 35.7257 32.4148 35.5723 31.5849 35.5723C31.3349 35.5723 31.0401 35.6455 30.8802 35.6865L30.815 35.7011L30.74 35.7199L31.2202 36.193C31.9586 36.921 32.5978 37.5488 32.5978 37.9674C32.5978 38.2193 32.3489 38.5473 32.119 38.6936C32.0703 37.9265 31.2844 36.9017 30.5202 36.3278L30.4549 36.2798L30.4424 36.5486C30.4311 36.7318 30.4151 37.007 30.4151 37.2998C30.4151 38.7599 30.2648 38.9806 29.7515 38.9806C29.6731 38.9806 29.5525 38.959 29.4777 38.9309C29.7663 38.5794 29.8811 38.1139 29.8811 37.2982L29.8763 36.9222L29.8726 36.6188C29.8726 36.2857 29.9077 36.0378 29.935 35.8387L29.9499 35.7257L29.8692 35.7158C29.6292 35.6817 29.1829 35.6221 28.842 35.6221C28.1111 35.6221 27.6152 35.6876 27.2557 36.0221C27.0187 35.8329 26.7751 35.5079 26.7751 35.3011C26.7751 34.9973 26.9676 34.9738 27.2195 34.9738C27.3472 34.9738 27.466 34.9914 27.6305 35.012C27.9449 35.0569 28.419 35.1254 29.3933 35.1254H29.4532L29.4342 35.0675C29.1871 34.37 28.5091 33.3568 27.4214 32.0539C27.5196 31.7061 27.6152 31.477 27.9574 31.477ZM23.9264 11.5378C23.8183 11.0939 23.5877 10.6377 23.2935 10.2945C23.0263 9.9836 22.5837 9.61409 21.9883 9.61409C21.7156 9.61409 21.2593 9.7388 20.9695 9.86005C20.8601 9.66565 20.6487 9.19592 20.6487 8.98453C20.6487 8.7667 21.0224 8.54648 21.7346 8.54648C23.3044 8.54648 24.2424 9.24632 24.2424 10.4189C24.2424 10.8299 24.0766 11.2053 23.9264 11.5378ZM24.6309 10.013C24.5745 9.68197 24.4469 9.38216 24.2525 9.12517C24.2621 8.82171 24.3886 8.53256 24.8829 8.77073C24.6156 9.04078 24.8222 9.51809 24.8222 9.51809C24.8222 9.51809 25.3694 9.26801 25.2565 8.91205C26.0681 9.10347 25.4847 10.1781 24.6309 10.013ZM27.6852 20.3568C27.7268 20.0212 27.75 19.6745 27.75 19.3203C27.75 19.1268 27.7518 18.9026 27.7281 18.6479C30.7586 18.6052 33.4171 16.4535 33.4171 13.9776C33.4171 12.7179 32.5841 11.7669 32.1131 11.1994C32.2194 11.1777 32.3257 11.1525 32.4326 11.1268C32.8765 11.5074 34.1365 12.8597 34.1365 14.5685C34.1365 17.5382 31.1251 20.2952 27.6852 20.3568Z" fill="white"/>
</svg>
