<svg width="136" height="41" viewBox="0 0 136 41" fill="none" xmlns="http://www.w3.org/2000/svg">
<path d="M130.664 40.4879H5.66368C2.91368 40.4879 0.663681 38.2379 0.663681 35.4879V5.48795C0.663681 2.73795 2.91368 0.487948 5.66368 0.487948H130.664C133.414 0.487948 135.664 2.73795 135.664 5.48795V35.4879C135.664 38.2379 133.414 40.4879 130.664 40.4879Z" fill="black"/>
<path d="M130.664 0.487948H5.66368C2.91368 0.487948 0.663681 2.73795 0.663681 5.48795V35.4879C0.663681 38.2379 2.91368 40.4879 5.66368 40.4879H130.664C133.414 40.4879 135.664 38.2379 135.664 35.4879V5.48795C135.664 2.73795 133.414 0.487948 130.664 0.487948ZM130.664 1.28795C132.98 1.28795 134.864 3.17235 134.864 5.48795V35.4879C134.864 37.8039 132.98 39.6883 130.664 39.6883H5.66368C3.34808 39.6883 1.46368 37.8039 1.46368 35.4879V5.48795C1.46368 3.17235 3.34808 1.28795 5.66368 1.28795H130.664Z" fill="#A6A6A6"/>
<path d="M107.6 30.488H109.466V17.9868H107.6V30.488ZM124.407 22.49L122.268 27.9099H122.204L119.984 22.49H117.974L121.303 30.0653L119.405 34.279H121.352L126.482 22.49H124.407ZM113.825 29.0681C113.213 29.0681 112.361 28.7626 112.361 28.0064C112.361 27.0415 113.423 26.6716 114.339 26.6716C115.16 26.6716 115.545 26.8485 116.044 27.09C115.899 28.2478 114.902 29.0681 113.825 29.0681V29.0681ZM114.05 22.2165C112.699 22.2165 111.3 22.8118 110.721 24.1306L112.377 24.822C112.731 24.1306 113.39 23.9052 114.082 23.9052C115.047 23.9052 116.028 24.4845 116.044 25.5138V25.6423C115.706 25.4493 114.983 25.1599 114.098 25.1599C112.313 25.1599 110.495 26.1407 110.495 27.9743C110.495 29.647 111.959 30.7247 113.599 30.7247C114.854 30.7247 115.545 30.1618 115.98 29.5025H116.044V30.4673H117.845V25.6743C117.845 23.4552 116.189 22.2165 114.05 22.2165V22.2165ZM102.518 24.0118H99.8637V19.7267H102.518C103.913 19.7267 104.705 20.8817 104.705 21.8692C104.705 22.838 103.913 24.0118 102.518 24.0118ZM102.47 17.9868H97.9987V30.488H99.8637V25.7517H102.47C104.538 25.7517 106.571 24.2544 106.571 21.8692C106.571 19.4841 104.538 17.9868 102.47 17.9868ZM78.0887 29.0704C76.7996 29.0704 75.7203 27.9911 75.7203 26.5087C75.7203 25.0107 76.7996 23.915 78.0887 23.915C79.3614 23.915 80.3602 25.0107 80.3602 26.5087C80.3602 27.9911 79.3614 29.0704 78.0887 29.0704V29.0704ZM80.2313 23.19H80.1668C79.7481 22.6907 78.9422 22.2396 77.9274 22.2396C75.8008 22.2396 73.8516 24.1083 73.8516 26.5087C73.8516 28.8931 75.8008 30.7458 77.9274 30.7458C78.9422 30.7458 79.7481 30.2946 80.1668 29.7794H80.2313V30.3915C80.2313 32.0189 79.3614 32.8888 77.9598 32.8888C76.816 32.8888 76.1071 32.0669 75.8168 31.3743L74.1899 32.0509C74.6571 33.1786 75.8977 34.5642 77.9598 34.5642C80.1508 34.5642 82.0035 33.2751 82.0035 30.1337V22.4974H80.2313V23.19ZM83.2922 30.488H85.161V17.9864H83.2922V30.488ZM87.916 26.3638C87.8676 24.7204 89.1887 23.8829 90.1391 23.8829C90.8807 23.8829 91.5087 24.2532 91.7177 24.7853L87.916 26.3638ZM93.7157 24.9462C93.3617 23.9954 92.2817 22.2396 90.0746 22.2396C87.8836 22.2396 86.0633 23.9634 86.0633 26.4927C86.0633 28.8771 87.8676 30.7458 90.284 30.7458C92.2337 30.7458 93.3617 29.5536 93.8287 28.861L92.3787 27.8942C91.8957 28.6032 91.2347 29.0704 90.284 29.0704C89.3336 29.0704 88.6571 28.6353 88.2219 27.7817L93.9087 25.4294L93.7157 24.9462ZM48.4075 23.5446V25.3489H52.725C52.5961 26.3638 52.2578 27.1048 51.7422 27.6204C51.1141 28.2489 50.1313 28.9415 48.4075 28.9415C45.7492 28.9415 43.6711 26.7989 43.6711 24.1407C43.6711 21.4825 45.7492 19.3396 48.4075 19.3396C49.8414 19.3396 50.8883 19.9036 51.6617 20.6286L52.9344 19.356C51.8551 18.3247 50.4211 17.5353 48.4075 17.5353C44.7664 17.5353 41.7055 20.4997 41.7055 24.1407C41.7055 27.7817 44.7664 30.7458 48.4075 30.7458C50.3731 30.7458 51.8551 30.1017 53.0149 28.8931C54.2071 27.7009 54.5778 26.0255 54.5778 24.6724C54.5778 24.2532 54.5457 23.8669 54.4809 23.5446H48.4075ZM59.4864 29.0704C58.1973 29.0704 57.0856 28.0071 57.0856 26.4927C57.0856 24.9622 58.1973 23.915 59.4864 23.915C60.775 23.915 61.8867 24.9622 61.8867 26.4927C61.8867 28.0071 60.775 29.0704 59.4864 29.0704V29.0704ZM59.4864 22.2396C57.134 22.2396 55.2168 24.0278 55.2168 26.4927C55.2168 28.9415 57.134 30.7458 59.4864 30.7458C61.8383 30.7458 63.7555 28.9415 63.7555 26.4927C63.7555 24.0278 61.8383 22.2396 59.4864 22.2396ZM68.7996 29.0704C67.511 29.0704 66.3992 28.0071 66.3992 26.4927C66.3992 24.9622 67.511 23.915 68.7996 23.915C70.0883 23.915 71.2 24.9622 71.2 26.4927C71.2 28.0071 70.0883 29.0704 68.7996 29.0704ZM68.7996 22.2396C66.4473 22.2396 64.5305 24.0278 64.5305 26.4927C64.5305 28.9415 66.4473 30.7458 68.7996 30.7458C71.1516 30.7458 73.0688 28.9415 73.0688 26.4927C73.0688 24.0278 71.1516 22.2396 68.7996 22.2396Z" fill="white"/>
<path d="M11.1735 32.8775L11.0992 32.8064C10.8082 32.4985 10.6364 32.0204 10.6364 31.4013V31.547V9.43096C10.6364 9.42896 10.6364 9.42746 10.6364 9.42586C10.6364 9.42776 10.6364 9.42936 10.6364 9.43136V9.57746C10.6364 8.90706 10.8367 8.40206 11.1723 8.09926L23.5621 20.4888L11.1735 32.8775ZM10.6364 9.42466C10.6364 9.36956 10.6379 9.31606 10.6407 9.26336C10.6379 9.31566 10.6364 9.36956 10.6364 9.42466ZM10.6407 9.26096C10.6407 9.26026 10.6407 9.25946 10.641 9.25866C10.6407 9.25946 10.6407 9.26026 10.6407 9.26096ZM10.641 9.25396C10.641 9.25356 10.641 9.25316 10.641 9.25276C10.641 9.25316 10.641 9.25356 10.641 9.25396Z" fill="url(#paint0_linear_2906_15644)"/>
<path d="M27.6914 24.7665L27.7856 24.713L32.6785 21.9329C33.145 21.6677 33.4559 21.3462 33.611 21.006C33.4563 21.3462 33.1453 21.6681 32.6785 21.9333L27.7856 24.7134L27.6914 24.7665V24.7665ZM27.6926 24.62L23.5621 20.4888L27.6922 16.3583L32.6785 19.1911C33.3117 19.5509 33.6672 20.0146 33.7266 20.4884C33.7266 20.4888 33.7266 20.4896 33.7266 20.4903C33.6672 20.963 33.3117 21.4271 32.6785 21.7868L27.6926 24.62" fill="url(#paint1_linear_2906_15644)"/>
<path d="M12.0567 33.3493C11.7106 33.3493 11.4086 33.2368 11.1731 33.0243L11.1735 33.0239C11.409 33.2364 11.7114 33.3493 12.0575 33.3493C12.0875 33.3493 12.118 33.3485 12.1489 33.347C12.1176 33.3485 12.0867 33.3493 12.0567 33.3493V33.3493ZM12.0571 33.2028C11.711 33.2032 11.409 33.0903 11.1735 32.8778V32.8775L23.5621 20.4888L27.6926 24.62L13.1774 32.8673C12.7758 33.095 12.3953 33.2028 12.0571 33.2028V33.2028ZM11.17 33.0216C11.1481 33.0017 11.1266 32.9806 11.1055 32.9587L11.17 33.0216Z" fill="url(#paint2_linear_2906_15644)"/>
<path d="M23.5621 20.4889L11.1723 8.09936C11.4078 7.88726 11.7094 7.77476 12.0551 7.77476C12.3942 7.77476 12.775 7.88296 13.1774 8.11106L27.6922 16.3584L23.5621 20.4889V20.4889ZM27.7856 16.2651L13.1774 7.96505C12.775 7.73685 12.3942 7.62866 12.0551 7.62866C12.0535 7.62866 12.0524 7.62866 12.0508 7.62866C12.0528 7.62866 12.0543 7.62866 12.0567 7.62866C12.395 7.62866 12.7754 7.73645 13.1774 7.96465L27.7856 16.2651V16.2651Z" fill="url(#paint3_linear_2906_15644)"/>
<path d="M12.1489 33.347C12.4633 33.329 12.8114 33.2208 13.1774 33.0134L27.6914 24.7665L13.1774 33.0134C12.8117 33.2212 12.4633 33.329 12.1489 33.347V33.347ZM11.1731 33.0243L11.17 33.0216C11.1711 33.0224 11.1723 33.0235 11.1731 33.0243ZM11.1055 32.9587L11.0992 32.9525V32.9521C11.1016 32.9544 11.1035 32.9567 11.1055 32.9587Z" fill="black"/>
<path d="M27.6914 24.7665L27.7856 24.713L27.6914 24.7665Z" fill="url(#paint4_linear_2906_15644)"/>
<path d="M12.0575 33.3493C11.7114 33.3493 11.409 33.2364 11.1735 33.0239L11.1731 33.0243C11.1723 33.0235 11.1711 33.0224 11.17 33.0216L11.1055 32.9587C11.1035 32.9567 11.1016 32.9544 11.0992 32.9521L11.1735 32.8778C11.409 33.0903 11.711 33.2032 12.0571 33.2028C12.3953 33.2028 12.7758 33.095 13.1774 32.8673L27.6926 24.62L27.7856 24.713L27.6914 24.7665L13.1774 33.0134C12.8114 33.2208 12.4633 33.329 12.1489 33.347C12.118 33.3485 12.0875 33.3493 12.0575 33.3493" fill="url(#paint5_linear_2906_15644)"/>
<path d="M11.0992 32.9526C10.8082 32.6447 10.6364 32.1666 10.6364 31.5475V31.5471C10.6364 32.1666 10.8082 32.6443 11.0992 32.9522V32.9526" fill="black"/>
<path d="M11.0992 32.9521C10.8082 32.6442 10.6364 32.1665 10.6364 31.547V31.4013C10.6364 32.0204 10.8082 32.4985 11.0992 32.8064L11.1735 32.8775L11.0992 32.9521" fill="url(#paint6_linear_2906_15644)"/>
<path d="M11.0992 32.9521L11.1735 32.8775V32.8778L11.0992 32.9521" fill="url(#paint7_linear_2906_15644)"/>
<path d="M33.611 21.006C33.6879 20.8372 33.7266 20.6638 33.7266 20.4903C33.7266 20.49 33.7266 20.4896 33.7266 20.4896C33.7266 20.6634 33.6879 20.8368 33.611 21.006Z" fill="black"/>
<path d="M27.7856 24.713L27.6926 24.62L32.6785 21.7868C33.3117 21.4271 33.6672 20.963 33.7266 20.4903C33.7266 20.6638 33.6879 20.8372 33.611 21.006C33.4559 21.3462 33.145 21.6677 32.6785 21.9329L27.7856 24.713Z" fill="url(#paint8_linear_2906_15644)"/>
<path d="M33.7266 20.4889V20.4885C33.7262 19.9654 33.3766 19.4424 32.6785 19.0455L27.7856 16.2654H27.7852L27.7856 16.2651L32.6785 19.0451C33.3774 19.442 33.7274 19.9658 33.7266 20.4889Z" fill="#404040"/>
<path d="M33.7266 20.4884C33.6672 20.0146 33.3117 19.5509 32.6785 19.1911L27.6922 16.3583L27.7852 16.2653H27.7856L32.6785 19.0454C33.3766 19.4423 33.7262 19.9653 33.7266 20.4884Z" fill="url(#paint9_linear_2906_15644)"/>
<path d="M10.6364 9.42593C10.6364 9.42553 10.6364 9.42513 10.6364 9.42473C10.6364 9.42513 10.6364 9.42553 10.6364 9.42593ZM10.6407 9.26343C10.6407 9.26263 10.6407 9.26184 10.6407 9.26104C10.6407 9.26184 10.6407 9.26263 10.6407 9.26343ZM10.641 9.25873C10.641 9.25713 10.641 9.25563 10.641 9.25403C10.641 9.25563 10.641 9.25713 10.641 9.25873ZM10.641 9.25284C10.6989 8.22554 11.2575 7.63213 12.0477 7.62863C11.7051 7.63063 11.4067 7.74313 11.1731 7.95363V7.95323L11.1703 7.95603C11.1457 7.97823 11.1223 8.00173 11.0992 8.02593C10.8367 8.30363 10.6711 8.71964 10.641 9.25284Z" fill="#404040"/>
<path d="M10.6364 9.57744V9.43134C10.6364 9.42934 10.6364 9.42774 10.6364 9.42584C10.6364 9.42544 10.6364 9.42504 10.6364 9.42464C10.6364 9.36954 10.6379 9.31564 10.6407 9.26334C10.6407 9.26254 10.6407 9.26174 10.6407 9.26094C10.6407 9.26024 10.6407 9.25944 10.641 9.25864C10.641 9.25704 10.641 9.25554 10.641 9.25394C10.641 9.25354 10.641 9.25314 10.641 9.25274C10.6711 8.71954 10.8367 8.30354 11.0992 8.02584L11.1723 8.09924C10.8367 8.40204 10.6364 8.90704 10.6364 9.57744V9.57744ZM11.1703 7.95594L11.1731 7.95314C11.1723 7.95434 11.1711 7.95514 11.1703 7.95594Z" fill="url(#paint10_linear_2906_15644)"/>
<path d="M27.6922 16.3583L13.1774 8.11101C12.775 7.88291 12.3942 7.77471 12.0551 7.77471C11.7094 7.77471 11.4078 7.88721 11.1723 8.09931L11.0992 8.02591C11.1223 8.00171 11.1457 7.97821 11.1703 7.95601C11.1711 7.95521 11.1723 7.95441 11.1731 7.95361C11.4067 7.74311 11.7051 7.63061 12.0477 7.62861C12.0485 7.62861 12.0496 7.62861 12.0508 7.62861C12.0524 7.62861 12.0535 7.62861 12.0551 7.62861C12.3942 7.62861 12.775 7.73681 13.1774 7.96501L27.7856 16.265L27.7852 16.2653L27.6922 16.3583Z" fill="url(#paint11_linear_2906_15644)"/>
<path d="M43.675 13.622C43.2383 13.622 42.8672 13.5009 42.5598 13.2575C42.2532 13.0146 42.0344 12.6728 41.9063 12.2314L42.6106 11.9376C42.7891 12.5692 43.1555 12.8845 43.7082 12.8845C44.0657 12.8845 44.341 12.7689 44.5332 12.5368C44.7258 12.3056 44.8223 11.9907 44.8223 11.5942V7.48798H45.5938V11.5775C45.5938 12.2314 45.4133 12.7353 45.0528 13.09C44.6926 13.445 44.2336 13.622 43.675 13.622Z" fill="white"/>
<path d="M43.675 13.622V13.522C43.2567 13.5212 42.9114 13.4075 42.6215 13.179H42.6219C42.3332 12.9501 42.1262 12.629 42.0024 12.2032L41.9063 12.2314L41.945 12.3235L42.6489 12.0302L42.6106 11.9376L42.5145 11.965C42.693 12.622 43.1125 12.9903 43.7082 12.9845C44.086 12.986 44.3985 12.8579 44.6102 12.6009C44.8211 12.347 44.9227 12.0064 44.9223 11.5942V7.588H45.4938V11.5775C45.4934 12.2138 45.32 12.686 44.9828 13.0189C44.6407 13.3544 44.2129 13.5208 43.675 13.522V13.622V13.722C44.2543 13.7228 44.7446 13.5353 45.1231 13.1614C45.5067 12.7841 45.6946 12.2485 45.6938 11.5775V7.388H44.8223H44.7223V11.5942C44.7223 11.9755 44.6301 12.2638 44.4563 12.4728C44.2836 12.6794 44.045 12.7829 43.7082 12.7845C43.1985 12.7786 42.8856 12.5161 42.7067 11.9107L42.6758 11.8021L41.868 12.1388L41.7856 12.1732L41.8102 12.2591C41.9426 12.7161 42.1727 13.0786 42.4977 13.336C42.8235 13.5939 43.2203 13.7224 43.675 13.722V13.622" fill="white"/>
<path d="M50.3703 8.22505H47.6379V10.1274H50.1016V10.8484H47.6379V12.7508H50.3703V13.4879H46.8672V7.48795H50.3703V8.22505" fill="white"/>
<path d="M50.3703 8.22517V8.12517H47.5379V10.2276H50.0016V10.7483L47.5379 10.7486V12.851H50.2703V13.3881H46.9672V7.58807H50.2703V8.22517H50.3703V8.12517V8.22517H50.4703V7.48807V7.38807H46.7672V13.5881H50.4703V12.751V12.651H47.7379V10.9486H50.2016V10.1276V10.0276H47.7379V8.32517H50.4703V8.22517H50.3703" fill="white"/>
<path d="M53.6211 13.4879H52.8496V8.22505H51.1739V7.48795H55.2969V8.22505H53.6211V13.4879Z" fill="white"/>
<path d="M53.6211 13.4881V13.3881H52.9496V8.12517H51.2739V7.58807H55.1969V8.12517H53.5211V13.4881H53.6211V13.3881V13.4881H53.7211V8.32517H55.3969V7.48807V7.38807H51.0739V8.22517V8.32517H52.7496V13.5881H53.6211H53.7211V13.4881H53.6211Z" fill="white"/>
<path d="M55.9348 13.4879V12.6832L59.127 8.22505H56.0684V7.48795H60.0235V8.29265L56.8313 12.7508H60.0578V13.4879H55.9348Z" fill="white"/>
<path d="M55.9348 13.4881H56.0348V12.7154L59.3215 8.12517H56.1684V7.58807H59.9235V8.26077L56.6367 12.851H59.9578V13.3881H55.9348V13.4881H56.0348H55.9348V13.5881H60.1578V12.751V12.651H57.0258L60.1235 8.32477V7.48807V7.38807H55.9684V8.22517V8.32517H58.9325L55.8348 12.6514V13.4881V13.5881H55.9348V13.4881Z" fill="white"/>
<path d="M63.2082 13.4879H62.4367V8.22505H60.761V7.48795H64.884V8.22505H63.2082V13.4879Z" fill="white"/>
<path d="M63.2082 13.4881V13.3881H62.5367V8.12517H60.861V7.58807H64.784V8.12517H63.1082V13.4881H63.2082V13.3881V13.4881H63.3082V8.32517H64.984V7.48807V7.38807H60.661V8.22517V8.32517H62.3367V13.5881H63.2082H63.3082V13.4881H63.2082Z" fill="white"/>
<path d="M68.6387 12.7508H70.1891C70.4852 12.7508 70.725 12.6473 70.9098 12.4399C71.0946 12.234 71.1864 12.0074 71.1864 11.7613C71.1864 11.5156 71.0914 11.291 70.9008 11.0871C70.7117 10.8832 70.4625 10.7809 70.1547 10.7809H68.6387V12.7508ZM68.6387 10.0602H70.0375C70.3285 10.0602 70.5621 9.96455 70.7379 9.77115C70.9137 9.57855 71.0016 9.36805 71.0016 9.13875C71.0016 8.90985 70.9164 8.69964 70.7457 8.51064C70.5758 8.32034 70.3512 8.22505 70.0719 8.22505H68.6387V10.0602ZM67.8684 13.4879V7.48795H70.0375C70.5075 7.48795 70.9137 7.64345 71.2575 7.95275C71.6012 8.26335 71.7731 8.65275 71.7731 9.12195C71.7731 9.40665 71.6989 9.65825 71.5504 9.87625C71.4032 10.0941 71.2059 10.259 70.9598 10.3707V10.4039C71.2555 10.5043 71.4989 10.6777 71.6891 10.9234C71.8785 11.1695 71.9742 11.4547 71.9742 11.7785C71.9742 12.2699 71.7938 12.6777 71.4332 13.0016C71.0731 13.3258 70.6473 13.4879 70.1547 13.4879H67.8684Z" fill="white"/>
<path d="M68.6387 12.751V12.851H70.1891C70.5078 12.8522 70.7828 12.735 70.9844 12.5068C71.1825 12.2869 71.2867 12.033 71.2864 11.7615C71.2867 11.4897 71.1785 11.2369 70.9742 11.019C70.7668 10.7943 70.4844 10.6799 70.1547 10.6811H68.5387V12.851H68.6387V12.751H68.7387V10.8811H70.1547C70.4407 10.8822 70.6563 10.9729 70.8278 11.1553C71.0043 11.3459 71.0856 11.5424 71.0864 11.7615C71.0856 11.9822 71.0063 12.1815 70.8352 12.3736C70.6676 12.5596 70.4617 12.6494 70.1891 12.651H68.6387V12.751H68.7387H68.6387ZM68.6387 10.0604V10.1604H70.0375C70.35 10.1615 70.618 10.0537 70.8117 9.83847V9.83887C71.0012 9.63257 71.1024 9.39427 71.1016 9.13887C71.1024 8.88497 71.0047 8.64747 70.82 8.44357L70.8203 8.44397C70.6325 8.23217 70.3735 8.12397 70.0719 8.12517H68.5387V10.1604H68.6387V10.0604H68.7387V8.32517H70.0719C70.3289 8.32677 70.5192 8.40877 70.6711 8.57717L70.6715 8.57757C70.8285 8.75257 70.9008 8.93537 70.9016 9.13887C70.9008 9.34157 70.8262 9.52517 70.6641 9.70367V9.70407C70.5067 9.87557 70.3075 9.95917 70.0375 9.96037H68.6387V10.0604H68.7387H68.6387ZM67.8684 13.4881H67.9684V7.58807H70.0375C70.4856 7.58887 70.8629 7.73337 71.1907 8.02717H71.1903C71.5145 8.32167 71.6719 8.67757 71.6731 9.12207C71.6727 9.38967 71.6043 9.61897 71.468 9.82007H71.4676C71.3301 10.0233 71.1489 10.1748 70.9184 10.2799L70.8598 10.3065V10.4041V10.4756L70.9274 10.4986C71.2059 10.594 71.4309 10.7541 71.6102 10.985L71.6098 10.9846C71.786 11.2143 71.8739 11.4744 71.8742 11.7787C71.8731 12.2459 71.7071 12.6197 71.3664 12.9276C71.0223 13.2358 70.625 13.3873 70.1547 13.3881H67.8684V13.4881H67.9684H67.8684V13.5881H70.1547C70.6692 13.5889 71.1235 13.4162 71.5 13.076C71.8801 12.7365 72.0754 12.2947 72.0742 11.7787C72.0746 11.4354 71.9711 11.1252 71.7684 10.8627L71.768 10.8623C71.5664 10.6022 71.3051 10.4154 70.9918 10.3096L70.9598 10.4041H71.0598V10.3709H70.9598L71.0012 10.4619C71.2625 10.3436 71.4758 10.1658 71.6332 9.93217L71.6328 9.93257C71.7934 9.69787 71.8735 9.42397 71.8731 9.12207C71.8742 8.62867 71.6879 8.20527 71.3246 7.87867L71.3223 7.87677L71.3242 7.87867C70.9645 7.55327 70.5293 7.38727 70.0375 7.38807H67.7684V13.5881H67.8684V13.4881" fill="white"/>
<path d="M76.5153 8.22505H73.7828V10.1274H76.2465V10.8484H73.7828V12.7508H76.5153V13.4879H73.0121V7.48795H76.5153V8.22505" fill="white"/>
<path d="M76.5153 8.22517V8.12517H73.6828V10.2276H76.1465V10.7483L73.6828 10.7486V12.851H76.4153V13.3881H73.1121V7.58807H76.4153V8.22517H76.5153V8.12517V8.22517H76.6153V7.48807V7.38807H72.9121V13.5881H76.6153V12.751V12.651H73.8828V10.9486H76.3465V10.1276V10.0276H73.8828V8.32517H76.6153V8.22517H76.5153" fill="white"/>
<path d="M77.7223 13.4879V7.48795H78.493V13.4879H77.7223Z" fill="white"/>
<path d="M77.7223 13.4881H77.8223V7.58807H78.393V13.3881H77.7223V13.4881H77.8223H77.7223V13.5881H78.493H78.593V7.38807H77.7223H77.6223V13.5881H77.7223V13.4881Z" fill="white"/>
<defs>
<linearGradient id="paint0_linear_2906_15644" x1="22.4635" y1="9.19766" x2="5.68098" y2="25.9802" gradientUnits="userSpaceOnUse">
<stop stop-color="#00A0FF"/>
<stop offset="0.00657445" stop-color="#00A1FF"/>
<stop offset="0.2601" stop-color="#00BEFF"/>
<stop offset="0.5122" stop-color="#00D2FF"/>
<stop offset="0.7604" stop-color="#00DFFF"/>
<stop offset="1" stop-color="#00E3FF"/>
</linearGradient>
<linearGradient id="paint1_linear_2906_15644" x1="34.4981" y1="20.4894" x2="10.3011" y2="20.4894" gradientUnits="userSpaceOnUse">
<stop stop-color="#FFE000"/>
<stop offset="0.4087" stop-color="#FFBD00"/>
<stop offset="0.7754" stop-color="#FFA500"/>
<stop offset="1" stop-color="#FF9C00"/>
</linearGradient>
<linearGradient id="paint2_linear_2906_15644" x1="25.4907" y1="22.7841" x2="2.73237" y2="45.5424" gradientUnits="userSpaceOnUse">
<stop stop-color="#FF3A44"/>
<stop offset="1" stop-color="#C31162"/>
</linearGradient>
<linearGradient id="paint3_linear_2906_15644" x1="7.96098" y1="0.664256" x2="18.1235" y2="10.8268" gradientUnits="userSpaceOnUse">
<stop stop-color="#32A071"/>
<stop offset="0.0685" stop-color="#2DA771"/>
<stop offset="0.4762" stop-color="#15CF74"/>
<stop offset="0.8009" stop-color="#06E775"/>
<stop offset="1" stop-color="#00F076"/>
</linearGradient>
<linearGradient id="paint4_linear_2906_15644" x1="34.498" y1="20.4894" x2="10.3013" y2="20.4894" gradientUnits="userSpaceOnUse">
<stop stop-color="#CCB300"/>
<stop offset="0.4087" stop-color="#CC9700"/>
<stop offset="0.7754" stop-color="#CC8400"/>
<stop offset="1" stop-color="#CC7D00"/>
</linearGradient>
<linearGradient id="paint5_linear_2906_15644" x1="25.4907" y1="22.7841" x2="2.73238" y2="45.5424" gradientUnits="userSpaceOnUse">
<stop stop-color="#CC2E36"/>
<stop offset="1" stop-color="#9C0E4E"/>
</linearGradient>
<linearGradient id="paint6_linear_2906_15644" x1="22.4635" y1="9.19764" x2="5.68097" y2="25.9801" gradientUnits="userSpaceOnUse">
<stop stop-color="#008DE0"/>
<stop offset="0.00657445" stop-color="#008DE0"/>
<stop offset="0.2601" stop-color="#00A7E0"/>
<stop offset="0.5122" stop-color="#00B8E0"/>
<stop offset="0.7604" stop-color="#00C4E0"/>
<stop offset="1" stop-color="#00C7E0"/>
</linearGradient>
<linearGradient id="paint7_linear_2906_15644" x1="25.4909" y1="22.784" x2="2.73253" y2="45.5427" gradientUnits="userSpaceOnUse">
<stop stop-color="#E0333C"/>
<stop offset="1" stop-color="#AB0F56"/>
</linearGradient>
<linearGradient id="paint8_linear_2906_15644" x1="34.4981" y1="20.4894" x2="10.3011" y2="20.4894" gradientUnits="userSpaceOnUse">
<stop stop-color="#E0C500"/>
<stop offset="0.4087" stop-color="#E0A600"/>
<stop offset="0.7754" stop-color="#E09100"/>
<stop offset="1" stop-color="#E08900"/>
</linearGradient>
<linearGradient id="paint9_linear_2906_15644" x1="34.4981" y1="20.4894" x2="10.3011" y2="20.4894" gradientUnits="userSpaceOnUse">
<stop stop-color="#FFE840"/>
<stop offset="0.4087" stop-color="#FFCE40"/>
<stop offset="0.7754" stop-color="#FFBC40"/>
<stop offset="1" stop-color="#FFB540"/>
</linearGradient>
<linearGradient id="paint10_linear_2906_15644" x1="22.4635" y1="9.19764" x2="5.68097" y2="25.9801" gradientUnits="userSpaceOnUse">
<stop stop-color="#40B8FF"/>
<stop offset="0.00657445" stop-color="#40B9FF"/>
<stop offset="0.2601" stop-color="#40CEFF"/>
<stop offset="0.5122" stop-color="#40DDFF"/>
<stop offset="0.7604" stop-color="#40E7FF"/>
<stop offset="1" stop-color="#40EAFF"/>
</linearGradient>
<linearGradient id="paint11_linear_2906_15644" x1="7.96097" y1="0.664208" x2="18.1235" y2="10.8267" gradientUnits="userSpaceOnUse">
<stop stop-color="#65B895"/>
<stop offset="0.0685" stop-color="#62BD95"/>
<stop offset="0.4762" stop-color="#50DB97"/>
<stop offset="0.8009" stop-color="#44ED98"/>
<stop offset="1" stop-color="#40F498"/>
</linearGradient>
</defs>
</svg>
