<svg width="600" height="448" viewBox="0 0 600 448" fill="none" xmlns="http://www.w3.org/2000/svg">
<g clip-path="url(#clip0_4454_29458)">
<path d="M422.836 133.519C426.259 114.104 427.971 104.396 433.057 97.647C437.53 91.7102 443.769 87.342 450.878 85.1686C458.959 82.6977 468.667 84.4094 488.082 87.8328L550.481 98.8355C569.896 102.259 579.604 103.971 586.353 109.057C592.29 113.53 596.658 119.769 598.831 126.878C601.302 134.959 599.591 144.667 596.167 164.082L585.164 226.481C581.741 245.896 580.029 255.604 574.943 262.353C570.47 268.29 564.231 272.658 557.122 274.831C549.041 277.302 539.333 275.591 519.918 272.167L457.519 261.164C438.104 257.741 428.396 256.029 421.647 250.943C415.71 246.47 411.342 240.231 409.169 233.122C406.698 225.041 408.409 215.333 411.833 195.918L422.836 133.519Z" fill="#004B76"/>
<path d="M552.76 174.921C551.091 170.684 549.833 166.285 548.301 161.99C548.018 161.194 547.802 160.403 547.653 159.599C549.017 156.992 550.066 153.999 550.673 150.559C551.31 145.653 548.921 140.79 545.855 136.846C547.162 136.6 548.269 136.284 548.968 135.924C542.726 134.823 537.119 130.557 533.72 129.958C531.53 129.572 529.899 130.636 529.592 132.373C529.393 134.333 531.025 136.646 534.684 137.292C535.513 137.438 536.587 137.517 537.787 137.525C539.279 140.649 540.432 143.443 539.801 147.026C538.617 153.74 529.718 157.572 521.653 156.156C521.2 156.076 520.774 155.979 520.332 155.87C519.896 154.077 517.958 150.85 518.519 147.668C519.461 142.326 523.696 138.575 524.629 133.285C525.209 129.994 523.974 127.678 523.512 126.725C524.667 125.975 525.947 125.03 526.342 124.297C525.719 124.448 525.028 124.354 524.036 124.179C520.168 123.497 517.194 121.931 514.121 121.389C512.367 121.08 511.799 121.545 511.708 122.059C511.674 122.25 511.667 122.45 511.703 122.55C511.094 122.179 510.511 121.901 509.805 121.641C508.928 121.305 507.97 121.048 506.926 120.864C503.194 120.206 501.588 121.548 501.351 122.895C501.15 124.033 501.678 126.275 502.411 128.044C503.992 127.564 505.831 127.374 506.627 127.514C508.611 127.864 510.04 130.07 510.575 132.485C509.215 132.412 508.951 132.428 507.602 132.19C503.966 131.549 501.723 129.805 501.212 129.715C501.163 129.706 501.062 129.713 501.048 129.796C500.958 130.307 501.75 131.845 503.648 132.948C506.151 134.403 510.089 135.521 510.737 135.754C510.716 135.873 509.815 137.022 509.009 137.137C508.843 137.158 508.715 137.141 508.532 137.068C505.832 136.021 505.096 135.65 501.787 133.668C501.689 133.607 501.607 133.664 501.587 133.777C501.338 135.188 504.421 138.944 507.464 140.716C504.13 143.726 500.11 146.699 497.544 151.858C497.085 151.809 496.643 151.753 496.189 151.673C488.12 150.25 481.056 143.603 482.241 136.88C482.873 133.3 484.913 131.069 487.383 128.641C488.513 129.044 489.55 129.336 490.378 129.483C494.038 130.128 496.366 128.512 496.846 126.602C497.152 124.865 495.983 123.307 493.793 122.921C490.394 122.321 483.663 124.412 477.424 123.312C477.961 123.89 478.894 124.562 480.033 125.243C475.804 127.901 471.896 131.653 470.817 136.481C470.209 139.931 470.172 143.108 470.564 146.031C470.155 146.728 469.682 147.391 469.151 148.034C466.245 151.549 463.559 155.253 460.538 158.66C456.458 163.267 453.654 169.07 448.054 172.267L447.994 172.605C450.574 175.324 453.37 175.369 456.097 172.704C456.663 172.151 457.176 171.536 457.678 170.919C462.074 165.496 466.453 160.061 470.863 154.65C471.209 154.228 471.501 153.241 472.186 153.745C472.628 154.067 472.59 155.026 472.297 155.677C472.116 156.085 471.784 156.428 471.498 156.779C466.157 163.261 460.808 169.739 455.479 176.23C454.589 177.315 453.527 178.119 452.23 178.633C451.68 178.85 450.876 178.884 450.931 179.734C450.982 180.509 451.616 180.821 452.267 181.112C454.701 182.196 456.659 181.667 458.683 179.229C463.5 173.416 468.287 167.579 473.087 161.754C473.365 161.414 473.619 160.788 474.089 161.04C474.542 161.283 474.532 161.946 474.347 162.447C474.215 162.806 473.989 163.149 473.745 163.451C469.035 169.349 464.331 175.247 459.59 181.12C458.193 182.853 456.616 184.404 454.737 185.634C454.279 185.933 453.312 185.775 453.483 186.734C453.619 187.501 454.339 187.769 454.948 188.027C455.517 188.268 456.145 188.313 456.786 188.254C459.232 188.033 460.963 186.638 462.443 184.822C467.139 179.06 471.829 173.291 476.534 167.534C476.876 167.115 477.091 166.547 477.697 166.369C478.487 167.261 478.108 167.947 477.466 168.74C472.39 174.996 467.362 181.295 462.291 187.556C460.82 189.373 459.198 191.041 457.189 192.296C456.737 192.58 455.704 192.354 455.92 193.305C456.099 194.095 456.704 194.622 457.55 194.884C459.709 195.553 461.537 194.998 463.13 193.074C468.893 186.126 474.649 179.177 480.409 172.229C480.698 171.879 480.982 171.524 481.3 171.204C481.497 171.006 481.778 170.814 482.051 171.016C482.335 171.226 482.53 171.571 482.332 171.913C482.077 172.351 481.748 172.751 481.431 173.15C475.801 180.268 470.165 187.385 464.531 194.503C462.809 196.68 461.024 198.778 457.995 199.313C458.91 200.949 460.238 201.431 461.788 201.359C463.756 201.27 465.311 200.39 466.581 198.829C472.879 191.076 479.217 183.358 485.558 175.64C485.955 175.158 486.392 174.307 487.166 174.848C488.038 175.456 487.256 176.037 486.862 176.538C480.614 184.473 474.357 192.4 468.106 200.334C466.154 202.809 464.088 205.133 461.022 206.267C460.245 206.557 460.299 206.971 460.876 207.487C462.334 208.785 463.959 209.066 465.761 208.364C467.448 207.708 468.783 206.557 469.907 205.171L496.179 174.596C496.325 175.948 496.36 177.215 496.145 178.432C494.607 187.157 490.866 194.454 483.072 199.253C482.523 199.551 481.97 199.843 481.407 200.117C482.018 201.319 483.096 201.29 484.081 201.488C484.623 201.596 485.383 201.392 485.597 202.107C485.773 202.696 485.189 203.057 484.861 203.467C482.092 206.915 479.053 210.14 476.472 213.743C475.488 215.116 474.112 215.172 472.7 214.64C471.062 214.025 469.358 213.784 467.653 213.515C465.338 213.148 463.999 214.602 464.528 216.945C464.781 218.059 465.148 219.143 465.48 220.302C466.515 219.136 466.518 219.171 468.266 219.006C468.782 218.959 469.272 218.64 469.778 218.46C470.337 218.26 470.857 217.857 471.673 218.022C470.507 219.507 468.988 220.268 467.679 221.289C467.126 221.718 466.446 222.144 466.705 222.977C467.269 224.783 467.81 226.613 468.966 228.476C469.02 226.155 469.018 226.145 470.846 225.577C471.298 225.437 471.294 225.035 471.475 224.718C472.255 223.354 472.54 221.72 473.777 220.558C473.638 222.334 473.331 224.058 473.03 225.786C472.938 226.306 472.758 226.795 473.314 227.248C474.627 228.314 475.886 229.445 477.202 230.578C477.519 229.862 477.019 229.369 476.922 228.809C476.849 228.389 476.564 227.921 476.983 227.597C478.199 226.66 477.819 225.542 477.496 224.366C477.141 223.07 476.796 221.755 476.616 220.425C476.34 218.368 477.401 217.405 479.413 217.759C480.317 217.919 481.22 218.087 482.114 218.286C484.548 218.825 484.543 218.833 484.255 221.194C484.237 221.329 484.308 221.48 484.384 221.86C485.799 220.821 486.415 219.201 487.784 218.351C488.824 217.706 488.899 216.716 488.215 215.836C487.484 214.892 487.352 213.04 485.354 213.726C483.76 214.273 482.13 214.713 480.473 215.211C480.452 214.906 480.4 214.775 480.448 214.702C482.413 211.567 485.271 209.348 488.137 207.137C488.707 206.698 489.009 206.949 489.073 207.61C489.17 208.637 489.396 209.636 489.863 210.559C489.954 210.735 490.148 210.942 490.32 210.972C490.677 211.035 490.712 210.681 490.78 210.436C490.869 210.125 490.92 209.801 490.986 209.481C491.5 206.937 492.763 204.741 494.2 202.639C494.486 202.222 494.893 201.629 495.497 201.901C496.083 202.168 495.674 202.773 495.616 203.208C495.485 204.177 495.273 205.133 495.107 206.095C494.112 211.93 492.998 217.736 490.748 223.246C488.634 228.422 485.993 230.315 481.123 230.218C481.52 233.751 484.024 235.469 487.5 234.611C488.761 234.3 490.122 233.141 491.067 233.411C492.12 233.713 492.814 235.316 493.641 236.374C494.111 236.978 494.596 237.167 495.263 236.673C496.245 235.946 497.29 234.637 498.227 234.702C499.206 234.771 500.029 236.259 501.021 236.985C503.497 238.802 507.279 238.117 508.936 235.583C508.18 235.29 507.407 235.06 506.696 234.702C503.418 233.064 502.342 230.039 502.067 226.7C501.457 219.266 503.067 212.025 504.253 204.753C504.312 204.4 504.493 204.027 504.768 203.988C505.271 203.913 505.486 204.409 505.656 204.791C506.658 207.028 506.722 209.389 506.497 211.783C506.429 212.505 505.865 213.632 506.472 213.849C507.329 214.156 507.749 212.957 508.313 212.357C508.386 212.279 508.461 212.192 508.494 212.094C509 210.706 509.594 210.877 510.254 211.978C511.84 214.623 513.442 217.261 514.598 220.134C514.843 220.744 515.275 221.385 514.826 222.219C513.453 221.127 512.034 220.152 510.804 218.978C509.702 217.925 508.798 217.991 507.732 218.926C506.688 219.843 505.898 220.764 506.713 222.266C507.273 223.299 507.678 224.412 508.024 226.094C508.158 224.042 509.251 223.911 510.423 224.021C511.874 224.157 513.324 224.316 514.759 224.563C516.496 224.863 516.955 225.778 516.114 227.327C515.187 229.029 514.153 230.669 513.158 232.335C512.91 232.749 512.407 233.266 512.73 233.643C513.741 234.825 513.097 235.687 512.385 236.612C512.187 236.865 512.017 237.193 512.278 237.502C512.538 237.812 512.864 237.681 513.159 237.542C513.941 237.175 514.702 236.754 515.502 236.44C517.434 235.689 518.189 234.22 518.072 232.248C517.993 230.892 518.431 229.648 518.787 228.318C519.107 231.612 520.278 234.632 521.449 237.504C525.615 232.254 526.035 234.276 522.749 229.528C522.722 229.486 522.66 229.469 522.615 229.439L521.553 227.893C521.417 227.462 521.285 227.027 521.08 226.367C522.252 227.251 523.14 228.158 524.211 228.666C525.538 229.295 526.641 229.882 526.373 231.613C526.367 231.647 526.531 231.707 526.667 231.787C527.703 230.772 528.552 229.585 529.259 228.333C530.286 226.507 528.933 224.258 526.863 224.147C525.411 224.07 523.953 223.781 522.513 223.866C520.427 223.987 519.492 222.816 518.852 221.119C517.348 217.128 515.834 213.141 514.346 209.146C514.111 208.515 513.548 207.801 514.101 207.174C514.717 206.476 515.37 207.14 515.992 207.397C516.289 207.519 516.606 207.615 516.924 207.668C517.442 207.753 518.127 208.043 518.419 207.502C518.669 207.038 518.005 206.72 517.708 206.37C516.609 205.085 515.583 203.759 514.633 202.39C510.918 195.958 511.21 188.945 512.553 181.325C512.767 180.115 513.226 178.944 513.82 177.728L528.04 215.422C528.62 217.105 529.483 218.643 530.844 219.84C532.297 221.115 533.92 221.408 535.734 220.686C536.452 220.402 536.646 220.028 536.014 219.49C533.524 217.376 532.375 214.483 531.387 211.492C528.226 201.901 525.058 192.309 521.9 182.716C521.702 182.11 521.165 181.301 522.193 181.024C523.106 180.78 523.228 181.73 523.433 182.318C526.752 191.739 530.068 201.16 533.334 210.599C533.994 212.5 535.151 213.862 536.973 214.616C538.406 215.211 539.818 215.212 541.24 213.991C538.577 212.452 537.616 209.871 536.743 207.236C533.884 198.621 531.022 190.005 528.165 181.39C528.004 180.907 527.832 180.419 527.742 179.92C527.674 179.528 527.975 179.271 528.313 179.174C528.639 179.077 528.836 179.354 528.954 179.606C529.144 180.016 529.289 180.45 529.441 180.875C532.477 189.374 535.509 197.875 538.548 206.372C539.391 208.722 540.916 209.869 543.176 209.982C544.06 210.025 544.81 209.737 545.248 209.055C545.776 208.236 544.728 208.095 544.4 207.673C542.942 205.807 541.988 203.685 541.227 201.474C538.6 193.857 536.03 186.221 533.403 178.603C533.068 177.638 532.95 176.861 533.997 176.296C534.508 176.668 534.513 177.278 534.691 177.789C537.143 184.808 539.575 191.833 542.02 198.854C542.79 201.066 543.936 202.968 546.162 204.013C546.747 204.286 547.353 204.458 547.966 204.428C548.627 204.394 549.394 204.392 549.785 203.714C550.274 202.869 549.311 202.69 548.983 202.252C547.638 200.453 546.686 198.457 545.966 196.351C543.523 189.211 541.118 182.056 538.708 174.906C538.586 174.539 538.491 174.14 538.487 173.756C538.485 173.22 538.701 172.596 539.209 172.523C539.737 172.446 539.762 173.122 539.907 173.536C542.423 180.651 544.928 187.774 547.466 194.884C548.531 197.866 550.193 199.031 552.851 198.847C553.565 198.798 554.268 198.721 554.577 198.01C554.921 197.227 554.176 196.923 553.734 196.531C552.69 195.604 551.968 194.482 551.503 193.161C548.711 185.239 545.9 177.325 543.102 169.404C542.95 168.976 542.759 168.538 542.728 168.096C542.676 167.385 542.968 166.47 543.494 166.318C544.309 166.079 544.246 167.106 544.427 167.621C546.72 174.214 548.976 180.819 551.252 187.418C551.51 188.169 551.783 188.92 552.127 189.636C553.779 193.07 556.422 193.985 559.776 192.315L559.835 191.977C555.666 187.061 555.013 180.648 552.757 174.921L552.76 174.921ZM484.437 127.472C484.779 127.62 485.123 127.769 485.467 127.908C483.542 129.573 480.17 132.337 479.411 136.645C477.901 145.205 485.686 154.24 495.978 156.055C495.782 156.776 495.613 157.543 495.473 158.334C495.251 159.596 495.116 160.786 495.041 161.915C483.41 159.789 474.836 148.478 476.641 138.242C477.671 132.398 482.716 128.511 484.437 127.472ZM512.225 133.824C512.133 132.243 511.628 130.544 510.852 129.194C510.142 127.971 508.884 126.441 506.881 126.088C505.971 125.927 504.362 126.086 503.315 126.331C503.067 125.597 502.642 123.869 502.769 123.145C502.897 122.421 504.286 121.866 506.678 122.288C511.944 123.217 514.665 126.162 513.957 130.177C513.708 131.589 512.925 132.771 512.225 133.824ZM515.511 129.018C515.52 127.853 515.272 126.749 514.774 125.751C514.993 124.724 515.592 123.804 517.108 124.915C516.047 125.681 516.451 127.44 516.451 127.44C516.451 127.44 518.438 126.906 518.272 125.619C520.882 126.753 518.273 130.088 515.511 129.018ZM521.995 160.639C532.29 162.454 542.692 156.629 544.202 148.066C544.961 143.758 542.738 140.007 541.499 137.784C541.869 137.771 542.243 137.753 542.616 137.727C543.877 139.295 547.289 144.671 546.258 150.514C544.453 160.751 532.528 168.446 520.871 166.466C521.187 165.38 521.467 164.216 521.69 162.953C521.83 162.159 521.932 161.384 521.995 160.639Z" fill="white"/>
<path opacity="0.4" d="M163.156 447.973C210.653 447.973 249.156 444.392 249.156 439.973C249.156 435.555 210.653 431.973 163.156 431.973C115.66 431.973 77.1565 435.555 77.1565 439.973C77.1565 444.392 115.66 447.973 163.156 447.973Z" fill="#2893D1"/>
<path d="M168.768 1.56117L13.299 58.1472C3.4935 61.7161 -1.56228 72.5583 2.00665 82.3638L112.693 386.471C116.262 396.277 127.104 401.333 136.909 397.764L292.378 341.178C302.184 337.609 307.239 326.767 303.671 316.961L192.984 12.8536C189.416 3.04803 178.573 -2.00776 168.768 1.56117Z" fill="#2893D1"/>
<path d="M180.131 51.6983L36.6609 103.917C33.447 105.087 31.7899 108.641 32.9597 111.854L117.694 344.66C118.864 347.873 122.417 349.53 125.631 348.361L269.101 296.142C272.315 294.972 273.972 291.418 272.803 288.205L188.068 55.3994C186.899 52.1856 183.345 50.5285 180.131 51.6983Z" fill="#E5E6E8"/>
<path d="M211.1 358.616C218.366 355.971 222.112 347.937 219.468 340.672C216.823 333.406 208.789 329.66 201.524 332.304C194.258 334.949 190.512 342.983 193.156 350.248C195.801 357.514 203.834 361.26 211.1 358.616Z" fill="#1C6692"/>
<path fill-rule="evenodd" clip-rule="evenodd" d="M181.593 204.618C181.594 204.618 181.595 204.618 181.945 206.58L181.595 204.618C182.682 204.424 183.721 205.148 183.915 206.236C184.109 207.321 183.388 208.358 182.304 208.554M182.303 208.554L182.301 208.555L182.299 208.555M182.303 208.554L182.288 208.558C182.27 208.561 182.237 208.568 182.19 208.578C182.097 208.599 181.949 208.633 181.753 208.685C181.361 208.79 180.782 208.964 180.074 209.234C178.656 209.777 176.743 210.699 174.792 212.209C170.946 215.187 166.804 220.558 166.161 230.27C166.088 231.373 165.135 232.207 164.033 232.134C162.931 232.061 162.096 231.108 162.169 230.006C162.892 219.093 167.64 212.689 172.343 209.047C174.667 207.247 176.943 206.149 178.646 205.498C179.498 205.172 180.212 204.956 180.723 204.82C180.979 204.752 181.185 204.704 181.333 204.671C181.406 204.655 181.466 204.643 181.51 204.634C181.532 204.63 181.55 204.626 181.564 204.623L181.583 204.62L181.59 204.619L181.593 204.618" fill="#003350"/>
<path fill-rule="evenodd" clip-rule="evenodd" d="M96.0147 109.187C96.0521 108.087 96.9728 107.223 98.0745 107.256ZM96.0146 109.188L96.014 109.202C96.0132 109.219 96.0114 109.25 96.0083 109.295C96.0021 109.385 95.9902 109.529 95.9685 109.722C95.9252 110.108 95.8426 110.689 95.6873 111.42C95.3766 112.884 94.7769 114.941 93.6247 117.251C91.3356 121.839 86.8248 127.513 77.8419 131.518C76.8331 131.968 76.3799 133.151 76.8297 134.159C77.2795 135.168 78.462 135.621 79.4708 135.172C89.3665 130.759 94.5343 124.388 97.2041 119.036C98.5314 116.376 99.2312 113.989 99.6001 112.251C99.7847 111.381 99.887 110.672 99.9436 110.168C99.9719 109.916 99.9887 109.716 99.9987 109.572C100.004 109.5 100.007 109.442 100.009 109.399L100.011 109.346L100.012 109.329L100.012 109.322L100.012 109.319C100.013 109.318 100.013 109.316 98.0144 109.255L100.013 109.316C100.046 108.212 99.1786 107.29 98.0745 107.256" fill="#003350"/>
<path fill-rule="evenodd" clip-rule="evenodd" d="M122.03 93.1685C122.031 93.1695 122.032 93.1705 122.033 93.1715L120.687 94.6509C122.033 93.1715 122.032 93.1708 122.032 93.1702L122.052 93.188C122.073 93.2063 122.108 93.2372 122.158 93.2794C122.258 93.3638 122.415 93.4936 122.628 93.6599C123.055 93.9927 123.704 94.4708 124.563 95.0237C126.282 96.1304 128.831 97.5305 132.112 98.6687C138.647 100.936 148.136 102.186 159.866 97.9168C160.904 97.539 162.051 98.0742 162.429 99.1122C162.807 100.15 162.272 101.298 161.234 101.676C148.531 106.299 138.089 104.976 130.801 102.448C127.17 101.188 124.335 99.6344 122.397 98.387C121.428 97.7628 120.68 97.2136 120.167 96.8134C119.911 96.6133 119.713 96.4502 119.575 96.3333C119.506 96.2749 119.451 96.228 119.413 96.1938C119.393 96.1767 119.377 96.1627 119.365 96.1521L119.35 96.1386L119.345 96.1338L119.343 96.1319C119.342 96.131 119.341 96.1303 120.687 94.6509" fill="#003350"/>
<path fill-rule="evenodd" clip-rule="evenodd" d="M239.11 165.67C239.137 164.566 240.054 163.692 241.158 163.719L298.51 165.12C298.51 165.12 298.51 165.12 298.51 165.12C314.22 165.502 322.246 184.143 311.724 195.814L278.354 233.713C277.625 234.542 276.361 234.622 275.532 233.892C274.703 233.162 274.622 231.898 275.352 231.069L308.73 193.161L308.747 193.143C316.988 184.013 310.709 169.417 298.413 169.118L298.412 169.118L241.061 167.718C239.956 167.691 239.083 166.774 239.11 165.67Z" fill="#003350"/>
<path fill-rule="evenodd" clip-rule="evenodd" d="M251.399 194.223C251.354 193.119 252.212 192.188 253.315 192.143L276.383 191.196C277.148 191.165 277.864 191.573 278.226 192.248C278.589 192.922 278.534 193.745 278.086 194.366C275.518 197.921 272.009 201.666 268.442 205.443C268.277 205.617 268.112 205.792 267.947 205.966C264.5 209.615 261.001 213.318 258.035 217.08C251.706 225.107 248.517 232.504 252.305 239.448C254.399 243.288 256.654 245.607 258.855 246.92C261.036 248.221 263.29 248.611 265.547 248.389C270.175 247.933 274.851 244.889 278.364 241.623C279.848 240.244 280.319 238.909 280.331 237.879C280.344 236.831 279.889 235.891 279.134 235.245C278.384 234.603 277.319 234.238 276.087 234.416C274.858 234.593 273.307 235.34 271.723 237.207C271.009 238.05 269.747 238.154 268.904 237.44C268.062 236.726 267.958 235.463 268.672 234.621C270.756 232.163 273.136 230.8 275.516 230.457C277.892 230.114 280.112 230.817 281.735 232.206C283.353 233.592 284.359 235.646 284.331 237.927C284.304 240.227 283.234 242.557 281.088 244.553C277.341 248.036 271.865 251.786 265.938 252.369C262.918 252.667 259.793 252.137 256.806 250.355C253.839 248.585 251.135 245.658 248.793 241.363C243.706 232.037 248.522 222.686 254.893 214.604C257.974 210.696 261.586 206.873 265 203.261C265.179 203.072 265.357 202.884 265.534 202.696C267.952 200.136 270.24 197.696 272.204 195.371L253.479 196.139C252.376 196.185 251.444 195.327 251.399 194.223Z" fill="#003350"/>
<path fill-rule="evenodd" clip-rule="evenodd" d="M261.255 238.526L260.136 236.869C259.221 237.487 258.98 238.73 259.598 239.646C260.216 240.56 261.457 240.801 262.372 240.185M262.372 240.185L262.379 240.18C262.388 240.175 262.403 240.165 262.424 240.151C262.468 240.123 262.536 240.08 262.627 240.024C262.811 239.912 263.083 239.752 263.423 239.57C264.111 239.203 265.04 238.767 266.049 238.456C268.205 237.792 269.923 237.904 270.985 239.121C271.711 239.953 272.974 240.04 273.807 239.314C274.639 238.588 274.725 237.324 273.999 236.492C271.291 233.386 267.39 233.857 264.871 234.634C263.542 235.043 262.369 235.598 261.539 236.041C261.12 236.265 260.779 236.465 260.539 236.612C260.419 236.686 260.324 236.746 260.256 236.79C260.222 236.812 260.194 236.83 260.174 236.843L260.15 236.86L260.141 236.865L260.137 236.868C260.136 236.868 260.136 236.869 261.255 238.526" fill="#003350"/>
<path fill-rule="evenodd" clip-rule="evenodd" d="M66.5139 228.423C67.2721 229.226 67.2357 230.492 66.4325 231.25C58.3924 238.841 51.0678 244.902 44.6893 249.997C42.7706 251.529 40.9469 252.967 39.2192 254.33C35.1716 257.521 31.6511 260.297 28.6706 262.9C24.4193 266.614 21.5027 269.782 19.8761 272.992C18.2998 276.103 17.8793 279.366 18.8856 283.449C19.8104 287.202 22.4251 289.843 26.5492 291.804C30.7289 293.792 36.2538 294.975 42.5621 295.835C46.5498 296.379 50.7197 296.781 54.9742 297.19C57.4687 297.43 59.9924 297.673 62.5255 297.949C69.2943 298.686 76.0294 299.654 81.8868 301.446C82.943 301.769 83.5372 302.887 83.214 303.944C82.8908 305 81.7726 305.594 80.7164 305.271C75.2399 303.595 68.8199 302.658 62.0922 301.925C59.6721 301.661 57.1974 301.423 54.7209 301.184C50.3998 300.768 46.0733 300.351 42.0215 299.799C35.6304 298.927 29.5943 297.682 24.8312 295.416C20.0126 293.125 16.303 289.687 15.0017 284.406C13.7819 279.456 14.2704 275.205 16.308 271.184C18.2952 267.262 21.6974 263.68 26.0392 259.888C29.0993 257.215 32.7434 254.341 36.8341 251.116C38.5456 249.766 40.3352 248.355 42.1929 246.871C48.526 241.813 55.7572 235.827 63.6866 228.341C64.4898 227.583 65.7556 227.62 66.5139 228.423Z" fill="#003350"/>
<path fill-rule="evenodd" clip-rule="evenodd" d="M75.6726 255.924C76.4026 256.753 76.3225 258.016 75.4935 258.746L60.1404 272.268C62.9185 272.631 65.9864 272.904 69.2254 273.193C69.4423 273.212 69.66 273.232 69.8784 273.251C75.0116 273.709 80.5024 274.22 85.611 275.218C95.6463 277.181 105.317 281.253 107.214 291.784C108.958 301.449 106.235 307.893 101.308 311.738C96.5545 315.449 90.1268 316.437 84.9221 316.172C82.0018 316.024 79.6778 314.943 78.1442 313.242C76.622 311.554 75.9905 309.37 76.2713 307.274C76.5535 305.168 77.7503 303.197 79.7689 301.933C81.7843 300.672 84.4655 300.203 87.6303 300.745C88.719 300.931 89.4506 301.965 89.2643 303.054C89.0779 304.142 88.0443 304.874 86.9556 304.688C84.5309 304.273 82.8962 304.695 81.8911 305.324C80.8893 305.951 80.3612 306.87 80.2359 307.805C80.1093 308.75 80.3878 309.757 81.1149 310.564C81.8308 311.358 83.0955 312.074 85.1254 312.178C89.821 312.416 95.1446 311.475 98.847 308.585C102.376 305.831 104.814 301.005 103.277 292.495L103.277 292.494C101.873 284.698 94.7712 281.085 84.8434 279.144C79.9702 278.191 74.6816 277.695 69.5229 277.235C69.2705 277.213 69.0183 277.19 68.7663 277.168C63.9252 276.737 59.1873 276.316 55.2463 275.531C54.5003 275.382 53.9031 274.823 53.7056 274.089C53.508 273.354 53.7442 272.571 54.3151 272.068L72.8498 255.745C73.6788 255.015 74.9425 255.095 75.6726 255.924Z" fill="#003350"/>
<path fill-rule="evenodd" clip-rule="evenodd" d="M96.3987 296.519C96.3995 296.519 96.4002 296.519 96.4265 298.501L96.4002 296.519C97.5047 296.504 98.4119 297.388 98.4265 298.492C98.4411 299.595 97.5603 300.501 96.4583 300.519C96.457 300.519 96.4558 300.519 96.4545 300.519L96.4557 300.519L96.4574 300.519L96.452 300.519C96.4436 300.519 96.4274 300.519 96.404 300.52C96.3571 300.522 96.2814 300.526 96.181 300.532C95.9797 300.546 95.6821 300.572 95.3205 300.621C94.5877 300.721 93.639 300.912 92.7085 301.266C90.8278 301.981 89.4465 303.148 89.3544 305.277C89.3067 306.38 88.3734 307.236 87.2698 307.189C86.1663 307.141 85.3104 306.207 85.3582 305.104C85.5497 300.677 88.7037 298.509 91.2872 297.527C92.5888 297.032 93.8545 296.784 94.7782 296.658C95.2447 296.594 95.6359 296.56 95.9161 296.541C96.0565 296.532 96.1699 296.526 96.2519 296.523C96.2929 296.522 96.3261 296.521 96.351 296.52L96.382 296.519L96.3928 296.519L96.3969 296.519L96.3987 296.519Z" fill="#003350"/>
<path d="M120.361 180.404C134.235 175.354 141.389 160.013 136.339 146.139C131.289 132.264 115.948 125.111 102.074 130.161C88.1996 135.21 81.046 150.551 86.0958 164.426C91.1457 178.3 106.487 185.454 120.361 180.404Z" fill="white"/>
<path fill-rule="evenodd" clip-rule="evenodd" d="M135.727 165.959C132.903 172.44 127.529 177.795 120.361 180.404C112.575 183.238 104.326 182.228 97.6938 178.344C94.4621 168.18 99.8023 157.186 109.918 153.504C120.297 149.726 131.774 155.078 135.552 165.457C135.613 165.624 135.671 165.791 135.727 165.959Z" fill="#003350"/>
<path fill-rule="evenodd" clip-rule="evenodd" d="M142.088 170.621C143.181 170.78 143.938 171.795 143.779 172.888C143.222 176.702 142.103 180.709 140.903 184.596C140.487 185.944 140.064 187.27 139.648 188.572C138.847 191.082 138.073 193.505 137.428 195.843C136.449 199.392 135.848 202.472 135.921 204.965C135.992 207.407 136.692 209.014 138.062 210.05C139.677 211.271 141.237 211.605 142.723 211.441C144.267 211.271 145.869 210.544 147.426 209.411C150.582 207.113 153.046 203.515 153.869 201.391C154.269 200.361 155.427 199.85 156.457 200.249C157.487 200.648 157.998 201.807 157.599 202.836C156.501 205.668 153.564 209.89 149.78 212.645C147.867 214.038 145.614 215.147 143.161 215.417C140.651 215.694 138.072 215.073 135.649 213.241C132.982 211.223 132.015 208.249 131.922 205.081C131.832 201.963 132.572 198.403 133.572 194.779C134.237 192.368 135.054 189.809 135.871 187.249C136.281 185.965 136.691 184.681 137.081 183.416C138.27 179.565 139.311 175.803 139.82 172.311C139.98 171.218 140.995 170.461 142.088 170.621Z" fill="#003350"/>
<path d="M165.55 163.957C179.424 158.907 186.578 143.566 181.528 129.691C176.478 115.817 161.137 108.663 147.263 113.713C133.388 118.763 126.235 134.104 131.285 147.978C136.334 161.853 151.676 169.006 165.55 163.957Z" fill="white"/>
<path fill-rule="evenodd" clip-rule="evenodd" d="M179.706 151.945C176.684 157.32 171.799 161.682 165.55 163.957C156.885 167.11 147.648 165.504 140.704 160.474C139.28 151.236 144.518 141.974 153.637 138.656C164.016 134.878 175.493 140.229 179.271 150.609C179.433 151.052 179.577 151.498 179.706 151.945Z" fill="#003350"/>
<path fill-rule="evenodd" clip-rule="evenodd" d="M65.9437 65.0584C65.6604 64.2799 66.0617 63.4192 66.8402 63.1358L131.679 39.5364C132.457 39.2531 133.318 39.6545 133.602 40.4329C133.885 41.2114 133.484 42.0722 132.705 42.3555L67.8663 65.9549C67.0878 66.2382 66.227 65.8368 65.9437 65.0584Z" fill="#195A80"/>
</g>
<defs>
<clipPath id="clip0_4454_29458">
<rect width="600" height="448" fill="white"/>
</clipPath>
</defs>
</svg>
