<svg width="600" height="448" viewBox="0 0 600 448" fill="none" xmlns="http://www.w3.org/2000/svg">
<g clip-path="url(#clip0_98_12323)">
<path d="M422.836 133.519C426.259 114.104 427.971 104.396 433.057 97.647C437.53 91.7102 443.769 87.342 450.878 85.1686C458.959 82.6977 468.667 84.4094 488.082 87.8328L550.481 98.8355C569.896 102.259 579.604 103.971 586.353 109.057C592.29 113.53 596.658 119.769 598.831 126.878C601.302 134.959 599.591 144.667 596.167 164.082L585.164 226.481C581.741 245.896 580.029 255.604 574.943 262.353C570.47 268.29 564.231 272.658 557.122 274.831C549.041 277.302 539.333 275.591 519.918 272.167L457.519 261.164C438.104 257.741 428.396 256.029 421.647 250.943C415.71 246.47 411.342 240.231 409.169 233.122C406.698 225.041 408.409 215.333 411.833 195.918L422.836 133.519Z" fill="#004B76"/>
<path d="M552.76 174.921C551.091 170.684 549.833 166.285 548.301 161.99C548.018 161.194 547.802 160.403 547.653 159.599C549.017 156.992 550.066 153.999 550.673 150.559C551.31 145.653 548.921 140.79 545.855 136.846C547.162 136.6 548.269 136.284 548.968 135.924C542.726 134.823 537.119 130.557 533.72 129.958C531.53 129.572 529.899 130.636 529.592 132.373C529.393 134.333 531.025 136.646 534.684 137.292C535.513 137.438 536.587 137.517 537.787 137.525C539.279 140.649 540.432 143.443 539.801 147.026C538.617 153.74 529.718 157.572 521.653 156.156C521.2 156.076 520.774 155.979 520.332 155.87C519.896 154.077 517.958 150.85 518.519 147.668C519.461 142.326 523.696 138.575 524.629 133.285C525.209 129.994 523.974 127.678 523.512 126.725C524.667 125.975 525.947 125.03 526.342 124.297C525.719 124.448 525.028 124.354 524.036 124.179C520.168 123.497 517.194 121.931 514.121 121.389C512.367 121.08 511.799 121.545 511.708 122.059C511.674 122.25 511.667 122.45 511.703 122.55C511.094 122.179 510.511 121.901 509.805 121.641C508.928 121.305 507.97 121.048 506.926 120.864C503.194 120.206 501.588 121.548 501.351 122.895C501.15 124.033 501.678 126.275 502.411 128.044C503.992 127.564 505.831 127.374 506.627 127.514C508.611 127.864 510.04 130.07 510.575 132.485C509.215 132.412 508.951 132.428 507.602 132.19C503.966 131.549 501.723 129.805 501.212 129.715C501.163 129.706 501.062 129.713 501.048 129.796C500.958 130.307 501.75 131.845 503.648 132.948C506.151 134.403 510.089 135.521 510.737 135.754C510.716 135.873 509.815 137.022 509.009 137.137C508.843 137.158 508.715 137.141 508.532 137.068C505.832 136.021 505.096 135.65 501.787 133.668C501.689 133.607 501.607 133.664 501.587 133.777C501.338 135.188 504.421 138.944 507.464 140.716C504.13 143.726 500.11 146.699 497.544 151.858C497.085 151.809 496.643 151.753 496.189 151.673C488.12 150.25 481.056 143.603 482.241 136.88C482.873 133.3 484.913 131.069 487.383 128.641C488.513 129.044 489.55 129.336 490.378 129.483C494.038 130.128 496.366 128.512 496.846 126.602C497.152 124.865 495.983 123.307 493.793 122.921C490.394 122.321 483.663 124.412 477.424 123.312C477.961 123.89 478.894 124.562 480.033 125.243C475.804 127.901 471.896 131.653 470.817 136.481C470.209 139.931 470.172 143.108 470.564 146.031C470.155 146.728 469.682 147.391 469.151 148.034C466.245 151.549 463.559 155.253 460.538 158.66C456.458 163.267 453.654 169.07 448.054 172.267L447.994 172.605C450.574 175.324 453.37 175.369 456.097 172.704C456.663 172.151 457.176 171.536 457.678 170.919C462.074 165.496 466.453 160.061 470.863 154.65C471.209 154.228 471.501 153.241 472.186 153.745C472.628 154.067 472.59 155.026 472.297 155.677C472.116 156.085 471.784 156.428 471.498 156.779C466.157 163.261 460.808 169.739 455.479 176.23C454.589 177.315 453.527 178.119 452.23 178.633C451.68 178.85 450.876 178.884 450.931 179.734C450.982 180.509 451.616 180.821 452.267 181.112C454.701 182.196 456.659 181.667 458.683 179.229C463.5 173.416 468.287 167.579 473.087 161.754C473.365 161.414 473.619 160.788 474.089 161.04C474.542 161.283 474.532 161.946 474.347 162.447C474.215 162.806 473.989 163.149 473.745 163.451C469.035 169.349 464.331 175.247 459.59 181.12C458.193 182.853 456.616 184.404 454.737 185.634C454.279 185.933 453.312 185.775 453.483 186.734C453.619 187.501 454.339 187.769 454.948 188.027C455.517 188.268 456.145 188.313 456.786 188.254C459.232 188.033 460.963 186.638 462.443 184.822C467.139 179.06 471.829 173.291 476.534 167.534C476.876 167.115 477.091 166.547 477.697 166.369C478.487 167.261 478.108 167.947 477.466 168.74C472.39 174.996 467.362 181.295 462.291 187.556C460.82 189.373 459.198 191.041 457.189 192.296C456.737 192.58 455.704 192.354 455.92 193.305C456.099 194.095 456.704 194.622 457.55 194.884C459.709 195.553 461.537 194.998 463.13 193.074C468.893 186.126 474.649 179.177 480.409 172.229C480.698 171.879 480.982 171.524 481.3 171.204C481.497 171.006 481.778 170.814 482.051 171.016C482.335 171.226 482.53 171.571 482.332 171.913C482.077 172.351 481.748 172.751 481.431 173.15C475.801 180.268 470.165 187.385 464.531 194.503C462.809 196.68 461.024 198.778 457.995 199.313C458.91 200.949 460.238 201.431 461.788 201.359C463.756 201.27 465.311 200.39 466.581 198.829C472.879 191.076 479.217 183.358 485.558 175.64C485.955 175.158 486.392 174.307 487.166 174.848C488.038 175.456 487.256 176.037 486.862 176.538C480.614 184.473 474.357 192.4 468.106 200.334C466.154 202.809 464.088 205.133 461.022 206.267C460.245 206.557 460.299 206.971 460.876 207.487C462.334 208.785 463.959 209.066 465.761 208.364C467.448 207.708 468.783 206.557 469.907 205.171L496.179 174.596C496.325 175.948 496.36 177.215 496.145 178.432C494.607 187.157 490.866 194.454 483.072 199.253C482.523 199.551 481.97 199.843 481.407 200.117C482.018 201.319 483.096 201.29 484.081 201.488C484.623 201.596 485.383 201.392 485.597 202.107C485.773 202.696 485.189 203.057 484.861 203.467C482.092 206.915 479.053 210.14 476.472 213.743C475.488 215.116 474.112 215.172 472.7 214.64C471.062 214.025 469.358 213.784 467.653 213.515C465.338 213.148 463.999 214.602 464.528 216.945C464.781 218.059 465.148 219.143 465.48 220.302C466.515 219.136 466.518 219.171 468.266 219.006C468.782 218.959 469.272 218.64 469.778 218.46C470.337 218.26 470.857 217.857 471.673 218.022C470.507 219.507 468.988 220.268 467.679 221.289C467.126 221.718 466.446 222.144 466.705 222.977C467.269 224.783 467.81 226.613 468.966 228.476C469.02 226.155 469.018 226.145 470.846 225.577C471.298 225.437 471.294 225.035 471.475 224.718C472.255 223.354 472.54 221.72 473.777 220.558C473.638 222.334 473.331 224.058 473.03 225.786C472.938 226.306 472.758 226.795 473.314 227.248C474.627 228.314 475.886 229.445 477.202 230.578C477.519 229.862 477.019 229.369 476.922 228.809C476.849 228.389 476.564 227.921 476.983 227.597C478.199 226.66 477.819 225.542 477.496 224.366C477.141 223.07 476.796 221.755 476.616 220.425C476.34 218.368 477.401 217.405 479.413 217.759C480.317 217.919 481.22 218.087 482.114 218.286C484.548 218.825 484.543 218.833 484.255 221.194C484.237 221.329 484.308 221.48 484.384 221.86C485.799 220.821 486.415 219.201 487.784 218.351C488.824 217.706 488.899 216.716 488.215 215.836C487.484 214.892 487.352 213.04 485.354 213.726C483.76 214.273 482.13 214.713 480.473 215.211C480.452 214.906 480.4 214.775 480.448 214.702C482.413 211.567 485.271 209.348 488.137 207.137C488.707 206.698 489.009 206.949 489.073 207.61C489.17 208.637 489.396 209.636 489.863 210.559C489.954 210.735 490.148 210.942 490.32 210.972C490.677 211.035 490.712 210.681 490.78 210.436C490.869 210.125 490.92 209.801 490.986 209.481C491.5 206.937 492.763 204.741 494.2 202.639C494.486 202.222 494.893 201.629 495.497 201.901C496.083 202.168 495.674 202.773 495.616 203.208C495.485 204.177 495.273 205.133 495.107 206.095C494.112 211.93 492.998 217.736 490.748 223.246C488.634 228.422 485.993 230.315 481.123 230.218C481.52 233.751 484.024 235.469 487.5 234.611C488.761 234.3 490.122 233.141 491.067 233.411C492.12 233.713 492.814 235.316 493.641 236.374C494.111 236.978 494.596 237.167 495.263 236.673C496.245 235.946 497.29 234.637 498.227 234.702C499.206 234.771 500.029 236.259 501.021 236.985C503.497 238.802 507.279 238.117 508.936 235.583C508.18 235.29 507.407 235.06 506.696 234.702C503.418 233.064 502.342 230.039 502.067 226.7C501.457 219.266 503.067 212.025 504.253 204.753C504.312 204.4 504.493 204.027 504.768 203.988C505.271 203.913 505.486 204.409 505.656 204.791C506.658 207.028 506.722 209.389 506.497 211.783C506.429 212.505 505.865 213.632 506.472 213.849C507.329 214.156 507.749 212.957 508.313 212.357C508.386 212.279 508.461 212.192 508.494 212.094C509 210.706 509.594 210.877 510.254 211.978C511.84 214.623 513.442 217.261 514.598 220.134C514.843 220.744 515.275 221.385 514.826 222.219C513.453 221.127 512.034 220.152 510.804 218.978C509.702 217.925 508.798 217.991 507.732 218.926C506.688 219.843 505.898 220.764 506.713 222.266C507.273 223.299 507.678 224.412 508.024 226.094C508.158 224.042 509.251 223.911 510.423 224.021C511.874 224.157 513.324 224.316 514.759 224.563C516.496 224.863 516.955 225.778 516.114 227.327C515.187 229.029 514.153 230.669 513.158 232.335C512.91 232.749 512.407 233.266 512.73 233.643C513.741 234.825 513.097 235.687 512.385 236.612C512.187 236.865 512.017 237.193 512.278 237.502C512.538 237.812 512.864 237.681 513.159 237.542C513.941 237.175 514.702 236.754 515.502 236.44C517.434 235.689 518.189 234.22 518.072 232.248C517.993 230.892 518.431 229.648 518.787 228.318C519.107 231.612 520.278 234.632 521.449 237.504C525.615 232.254 526.035 234.276 522.749 229.528C522.722 229.486 522.66 229.469 522.615 229.439L521.553 227.893C521.417 227.462 521.285 227.027 521.08 226.367C522.252 227.251 523.14 228.158 524.211 228.666C525.538 229.295 526.641 229.882 526.373 231.613C526.367 231.647 526.531 231.707 526.667 231.787C527.703 230.772 528.552 229.585 529.259 228.333C530.286 226.507 528.933 224.258 526.863 224.147C525.411 224.07 523.953 223.781 522.513 223.866C520.427 223.987 519.492 222.816 518.852 221.119C517.348 217.128 515.834 213.141 514.346 209.146C514.111 208.515 513.548 207.801 514.101 207.174C514.717 206.476 515.37 207.14 515.992 207.397C516.289 207.519 516.606 207.615 516.924 207.668C517.442 207.753 518.127 208.043 518.419 207.502C518.669 207.038 518.005 206.72 517.708 206.37C516.609 205.085 515.583 203.759 514.633 202.39C510.918 195.958 511.21 188.945 512.553 181.325C512.767 180.115 513.226 178.944 513.82 177.728L528.04 215.422C528.62 217.105 529.483 218.643 530.844 219.84C532.297 221.115 533.92 221.408 535.734 220.686C536.452 220.402 536.646 220.028 536.014 219.49C533.524 217.376 532.375 214.483 531.387 211.492C528.226 201.901 525.058 192.309 521.9 182.716C521.702 182.11 521.165 181.301 522.193 181.024C523.106 180.78 523.228 181.73 523.433 182.318C526.752 191.739 530.068 201.16 533.334 210.599C533.994 212.5 535.151 213.862 536.973 214.616C538.406 215.211 539.818 215.212 541.24 213.991C538.577 212.452 537.616 209.871 536.743 207.236C533.884 198.621 531.022 190.005 528.165 181.39C528.004 180.907 527.832 180.419 527.742 179.92C527.674 179.528 527.975 179.271 528.313 179.174C528.639 179.077 528.836 179.354 528.954 179.606C529.144 180.016 529.289 180.45 529.441 180.875C532.477 189.374 535.509 197.875 538.548 206.372C539.391 208.722 540.916 209.869 543.176 209.982C544.06 210.025 544.81 209.737 545.248 209.055C545.776 208.236 544.728 208.095 544.4 207.673C542.942 205.807 541.988 203.685 541.227 201.474C538.6 193.857 536.03 186.221 533.403 178.603C533.068 177.638 532.95 176.861 533.997 176.296C534.508 176.668 534.513 177.278 534.691 177.789C537.143 184.808 539.575 191.833 542.02 198.854C542.79 201.066 543.936 202.968 546.162 204.013C546.747 204.286 547.353 204.458 547.966 204.428C548.627 204.394 549.394 204.392 549.785 203.714C550.274 202.869 549.311 202.69 548.983 202.252C547.638 200.453 546.686 198.457 545.966 196.351C543.523 189.211 541.118 182.056 538.708 174.906C538.586 174.539 538.491 174.14 538.487 173.756C538.484 173.22 538.701 172.596 539.209 172.523C539.737 172.446 539.762 173.122 539.907 173.536C542.423 180.651 544.928 187.774 547.466 194.884C548.531 197.866 550.193 199.031 552.851 198.847C553.565 198.798 554.268 198.721 554.577 198.01C554.921 197.227 554.176 196.923 553.734 196.531C552.69 195.604 551.968 194.482 551.503 193.161C548.711 185.239 545.9 177.325 543.102 169.404C542.95 168.976 542.759 168.538 542.728 168.096C542.676 167.385 542.968 166.47 543.494 166.318C544.309 166.079 544.246 167.106 544.427 167.621C546.72 174.214 548.976 180.819 551.252 187.418C551.51 188.169 551.783 188.92 552.127 189.636C553.779 193.07 556.422 193.985 559.776 192.315L559.835 191.977C555.666 187.061 555.013 180.648 552.757 174.921L552.76 174.921ZM484.437 127.472C484.779 127.62 485.123 127.769 485.467 127.908C483.542 129.573 480.17 132.337 479.411 136.645C477.901 145.205 485.686 154.24 495.978 156.055C495.782 156.776 495.613 157.543 495.473 158.334C495.251 159.596 495.116 160.786 495.041 161.915C483.41 159.789 474.836 148.478 476.641 138.242C477.671 132.398 482.716 128.511 484.437 127.472ZM512.225 133.824C512.133 132.243 511.628 130.544 510.852 129.194C510.142 127.971 508.884 126.441 506.881 126.088C505.971 125.927 504.362 126.086 503.315 126.331C503.067 125.597 502.642 123.869 502.769 123.145C502.897 122.421 504.286 121.866 506.678 122.288C511.944 123.217 514.665 126.162 513.957 130.177C513.708 131.589 512.925 132.771 512.225 133.824ZM515.511 129.018C515.52 127.853 515.272 126.749 514.774 125.751C514.993 124.724 515.592 123.804 517.108 124.915C516.047 125.681 516.451 127.44 516.451 127.44C516.451 127.44 518.438 126.906 518.272 125.619C520.882 126.753 518.273 130.088 515.511 129.018ZM521.995 160.639C532.29 162.454 542.692 156.629 544.202 148.066C544.961 143.758 542.738 140.007 541.499 137.784C541.869 137.771 542.243 137.753 542.616 137.727C543.877 139.295 547.289 144.671 546.258 150.514C544.453 160.751 532.528 168.446 520.871 166.466C521.187 165.38 521.467 164.216 521.69 162.953C521.83 162.159 521.932 161.384 521.995 160.639Z" fill="white"/>
<g clip-path="url(#clip1_98_12323)">
<path opacity="0.4" d="M170.747 446.829C218.29 446.829 256.832 443.276 256.832 438.892C256.832 434.509 218.29 430.955 170.747 430.955C123.203 430.955 84.6614 434.509 84.6614 438.892C84.6614 443.276 123.203 446.829 170.747 446.829Z" fill="#2893D1"/>
<path d="M169.593 1.88049L13.9698 58.5225C4.15455 62.095 -0.906233 72.9479 2.66623 82.7631L113.462 387.172C117.034 396.987 127.887 402.048 137.703 398.475L293.325 341.833C303.141 338.261 308.201 327.408 304.629 317.593L193.833 13.1841C190.261 3.36883 179.408 -1.69197 169.593 1.88049Z" fill="#2893D1"/>
<path d="M180.967 52.0672L37.3547 104.338C34.1377 105.509 32.479 109.066 33.6499 112.283L118.468 345.319C119.639 348.536 123.196 350.194 126.413 349.023L270.025 296.753C273.242 295.582 274.901 292.025 273.73 288.808L188.912 55.772C187.741 52.555 184.184 50.8963 180.967 52.0672Z" fill="#E5E6E8"/>
<path d="M211.967 359.289C219.24 356.641 222.99 348.6 220.343 341.327C217.695 334.054 209.654 330.304 202.381 332.951C195.108 335.598 191.358 343.64 194.005 350.913C196.652 358.186 204.694 361.936 211.967 359.289Z" fill="#1C6692"/>
<path fill-rule="evenodd" clip-rule="evenodd" d="M182.43 205.139C182.431 205.138 182.432 205.138 182.783 207.102L182.432 205.138C183.521 204.944 184.561 205.669 184.755 206.758C184.948 207.844 184.227 208.882 183.142 209.079M183.142 209.079L183.139 209.079L183.138 209.079M183.142 209.079L183.126 209.082C183.108 209.085 183.075 209.092 183.028 209.102C182.935 209.123 182.786 209.158 182.591 209.21C182.198 209.314 181.619 209.488 180.91 209.759C179.49 210.302 177.575 211.225 175.623 212.737C171.773 215.718 167.627 221.095 166.983 230.816C166.91 231.919 165.956 232.755 164.853 232.682C163.75 232.608 162.915 231.655 162.988 230.552C163.711 219.628 168.463 213.217 173.172 209.571C175.498 207.77 177.776 206.671 179.48 206.019C180.333 205.693 181.048 205.477 181.56 205.341C181.816 205.272 182.022 205.224 182.17 205.192C182.244 205.175 182.303 205.163 182.347 205.154C182.369 205.15 182.388 205.146 182.402 205.144L182.42 205.14L182.427 205.139L182.43 205.139" fill="#003350"/>
<path fill-rule="evenodd" clip-rule="evenodd" d="M96.7673 109.613C96.8047 108.511 97.7264 107.647 98.8292 107.68L96.7673 109.613ZM96.7673 109.614L96.7666 109.627C96.7658 109.644 96.7641 109.676 96.761 109.721C96.7547 109.811 96.7428 109.955 96.7211 110.148C96.6777 110.535 96.5951 111.116 96.4397 111.848C96.1286 113.314 95.5283 115.373 94.375 117.685C92.0836 122.278 87.5684 127.957 78.5765 131.966C77.5667 132.417 77.1131 133.6 77.5634 134.61C78.0136 135.62 79.1972 136.074 80.2071 135.623C90.1126 131.207 95.2855 124.829 97.9579 119.472C99.2865 116.809 99.9871 114.419 100.356 112.68C100.541 111.809 100.644 111.099 100.7 110.595C100.728 110.343 100.745 110.142 100.755 109.998C100.76 109.926 100.764 109.868 100.766 109.826L100.768 109.773L100.769 109.755L100.769 109.748L100.769 109.745C100.769 109.744 100.769 109.742 98.769 109.681L100.769 109.742C100.803 108.637 99.9344 107.714 98.8292 107.68" fill="#003350"/>
<path fill-rule="evenodd" clip-rule="evenodd" d="M124.07 96.4453C124.069 96.4444 124.068 96.4436 125.357 95.2393L124.068 96.4436C123.403 95.7319 123.441 94.6158 124.153 93.9507C124.864 93.286 125.979 93.3233 126.644 94.0337L126.643 94.0328L126.643 94.032C126.643 94.032 126.644 94.033 126.645 94.0349L126.646 94.035L126.668 94.0581C126.69 94.081 126.727 94.1187 126.779 94.1698C126.882 94.2719 127.044 94.4274 127.262 94.6247C127.698 95.0196 128.36 95.5807 129.233 96.2181C130.983 97.4947 133.566 99.0652 136.881 100.226C143.453 102.527 153.055 103.277 165.014 96.6027C165.865 96.128 166.939 96.4327 167.414 97.2833C167.889 98.134 167.584 99.2083 166.733 99.683C153.847 106.875 143.19 106.173 135.715 103.555C132.007 102.257 129.12 100.502 127.154 99.0676C126.17 98.3496 125.413 97.7089 124.896 97.2409C124.637 97.0068 124.437 96.8155 124.299 96.6787C124.23 96.6104 124.176 96.5556 124.137 96.5159L124.091 96.4679L124.077 96.4527L124.072 96.4474L124.07 96.4453Z" fill="#003350"/>
<path d="M250.329 168.406L248.859 164.365L299.463 165.601C315.188 165.983 323.222 184.643 312.691 196.326L281.393 231.87C281.85 232.121 282.278 232.418 282.672 232.754C284.291 234.141 285.298 236.197 285.27 238.48C285.242 240.783 284.172 243.115 282.023 245.113C278.273 248.6 272.791 252.353 266.859 252.937C263.835 253.235 260.708 252.704 257.718 250.921C254.748 249.149 252.041 246.219 249.697 241.92C244.605 232.584 249.425 223.224 255.803 215.134C258.887 211.222 262.503 207.396 265.92 203.78L266.454 203.215C268.875 200.652 271.165 198.21 273.131 195.882L260.518 196.4L259.081 192.451L277.314 191.703C278.08 191.672 278.796 192.081 279.159 192.756C279.522 193.431 279.468 194.254 279.019 194.876C276.448 198.434 272.936 202.184 269.365 205.964L268.87 206.488C265.419 210.14 261.916 213.847 258.947 217.613C252.613 225.648 249.421 233.052 253.212 240.003C255.309 243.847 257.565 246.168 259.769 247.482C261.952 248.785 264.208 249.175 266.467 248.952C271.1 248.496 275.781 245.45 279.297 242.18C280.782 240.8 281.254 239.463 281.266 238.432C281.279 237.383 280.823 236.442 280.068 235.796C279.515 235.323 278.792 235 277.957 234.933C277.809 234.946 277.66 234.943 277.513 234.922C277.351 234.927 277.186 234.941 277.018 234.966C276.184 235.086 275.202 235.468 274.163 236.284C274.426 236.509 274.682 236.762 274.928 237.044C275.655 237.877 275.569 239.142 274.735 239.869C273.902 240.595 272.637 240.509 271.911 239.676C270.848 238.457 269.128 238.345 266.97 239.01C265.96 239.321 265.03 239.757 264.341 240.125C264.001 240.307 263.728 240.467 263.545 240.579C263.454 240.635 263.385 240.679 263.342 240.707L263.297 240.736L263.289 240.741C262.373 241.357 261.131 241.116 260.513 240.201C259.894 239.284 260.135 238.04 261.051 237.421L262.172 239.08C261.051 237.421 261.05 237.421 261.051 237.421L261.057 237.417L261.065 237.412L261.09 237.395L261.125 237.372L261.171 237.342C261.239 237.298 261.335 237.238 261.455 237.164C261.695 237.017 262.036 236.817 262.455 236.593C263.286 236.149 264.46 235.594 265.791 235.184C266.995 234.813 268.515 234.511 270.069 234.636C272.038 232.512 274.243 231.321 276.446 231.003C276.587 230.982 276.727 230.966 276.866 230.953L309.693 193.671L309.71 193.652C317.959 184.513 311.675 169.903 299.366 169.604L250.329 168.406Z" fill="#003350"/>
<path d="M67.7143 261.481L69.1848 265.521L60.8574 272.855C63.6383 273.219 66.7092 273.492 69.9515 273.781L70.6051 273.839C75.7434 274.298 81.2396 274.809 86.3533 275.809C96.3986 277.773 106.079 281.849 107.977 292.391C109.724 302.065 106.998 308.515 102.066 312.365C97.3077 316.079 90.8736 317.068 85.6637 316.803C82.7406 316.655 80.4142 315.573 78.8791 313.87C77.3554 312.18 76.7233 309.994 77.0044 307.896C77.1423 306.866 77.4987 305.869 78.0627 304.971C73.3937 303.847 68.2011 303.129 62.8113 302.542C60.3893 302.278 57.9127 302.039 55.4343 301.801C51.1089 301.384 46.7765 300.967 42.7207 300.413C36.3233 299.541 30.2812 298.294 25.5134 296.027C20.69 293.733 16.9767 290.291 15.6742 285.006C14.4531 280.051 14.9421 275.796 16.9817 271.77C18.9709 267.845 22.3764 264.259 26.7226 260.463C29.7857 257.787 33.4334 254.911 37.5282 251.682C39.2413 250.331 41.0327 248.919 42.8922 247.434C47.4796 243.769 52.5378 239.619 57.9908 234.766L59.4629 238.811C54.3919 243.277 49.6781 247.138 45.3911 250.562C43.4705 252.096 41.645 253.536 39.9156 254.899C35.864 258.094 32.34 260.873 29.3565 263.479C25.101 267.195 22.1816 270.367 20.5534 273.58C18.9755 276.694 18.5545 279.96 19.5618 284.048C20.4876 287.804 23.1049 290.448 27.2331 292.411C31.4169 294.401 36.9472 295.585 43.2619 296.446C47.2534 296.991 51.4273 297.392 55.686 297.802C58.1825 298.042 60.7098 298.285 63.245 298.561C69.7434 299.27 76.2107 300.189 81.9016 301.846C83.5261 301.202 85.4645 300.979 87.6522 301.253C88.8461 299.677 90.5365 298.709 92.0351 298.139C93.338 297.644 94.6049 297.396 95.5295 297.269C95.9965 297.206 96.388 297.171 96.6686 297.153C96.8091 297.143 96.9226 297.138 97.0046 297.135C97.0457 297.133 97.0789 297.132 97.1038 297.131L97.1349 297.131L97.1457 297.131L97.1498 297.131C97.1498 297.131 97.1531 297.13 97.1794 299.115L97.1531 297.13C98.2587 297.116 99.1668 298 99.1814 299.106C99.196 300.21 98.3144 301.117 97.2112 301.134L97.2086 301.134L97.2049 301.134L97.1569 301.136C97.11 301.137 97.0342 301.141 96.9337 301.148C96.7322 301.161 96.4343 301.187 96.0723 301.236C95.3389 301.337 94.3892 301.528 93.4577 301.882C91.5752 302.598 90.1925 303.766 90.1003 305.897C90.0525 307.002 89.1183 307.858 88.0137 307.811C86.9091 307.763 86.0523 306.828 86.1001 305.724C86.1087 305.527 86.1231 305.334 86.143 305.146C84.5504 305.098 83.4036 305.46 82.6297 305.944C81.6269 306.572 81.0983 307.491 80.9729 308.428C80.8462 309.373 81.1249 310.382 81.8528 311.189C82.5693 311.984 83.8353 312.701 85.8672 312.804C90.5675 313.044 95.8964 312.101 99.6025 309.209C103.135 306.452 105.575 301.621 104.037 293.102C102.632 285.299 95.5226 281.681 85.5849 279.738C80.7069 278.785 75.413 278.288 70.2493 277.828L69.4919 277.76C64.6461 277.329 59.9034 276.907 55.9585 276.121C55.2118 275.973 54.614 275.413 54.4163 274.678C54.2185 273.943 54.455 273.159 55.0264 272.655L67.7143 261.481Z" fill="#003350"/>
<path d="M121.138 180.9C135.026 175.846 142.187 160.489 137.132 146.601C132.077 132.713 116.721 125.552 102.833 130.607C88.9445 135.662 81.7838 151.018 86.8386 164.906C91.8935 178.794 107.25 185.955 121.138 180.9Z" fill="white"/>
<path d="M136.519 166.441C133.692 172.928 128.313 178.289 121.138 180.9C113.344 183.737 105.087 182.727 98.4481 178.838C95.2132 168.664 100.559 157.659 110.684 153.974C121.074 150.192 132.562 155.549 136.344 165.939C136.405 166.106 136.463 166.273 136.519 166.441Z" fill="#003350"/>
<path fill-rule="evenodd" clip-rule="evenodd" d="M142.887 171.107C143.981 171.267 144.738 172.283 144.579 173.377C144.022 177.194 142.901 181.206 141.7 185.096C141.283 186.446 140.86 187.773 140.444 189.077C139.642 191.589 138.867 194.015 138.222 196.355C137.242 199.907 136.64 202.991 136.713 205.485C136.784 207.93 137.485 209.539 138.856 210.576C140.473 211.798 142.035 212.132 143.522 211.968C145.068 211.798 146.671 211.071 148.229 209.936C151.389 207.635 153.855 204.034 154.679 201.908C155.079 200.877 156.239 200.365 157.27 200.765C158.3 201.164 158.812 202.324 158.413 203.355C157.314 206.19 154.374 210.415 150.586 213.173C148.671 214.568 146.415 215.678 143.961 215.948C141.447 216.225 138.867 215.603 136.441 213.77C133.771 211.75 132.803 208.773 132.711 205.602C132.62 202.481 133.361 198.917 134.362 195.29C135.028 192.877 135.846 190.314 136.663 187.752C137.073 186.467 137.484 185.181 137.875 183.915C139.064 180.061 140.107 176.295 140.617 172.799C140.776 171.705 141.792 170.948 142.887 171.107Z" fill="#003350"/>
<path d="M166.371 164.437C180.259 159.382 187.42 144.026 182.365 130.138C177.311 116.25 161.954 109.089 148.066 114.144C134.178 119.198 127.017 134.555 132.072 148.443C137.127 162.331 152.483 169.492 166.371 164.437Z" fill="white"/>
<path d="M180.541 152.413C177.517 157.794 172.627 162.16 166.371 164.437C157.698 167.594 148.452 165.986 141.5 160.951C140.076 151.703 145.319 142.433 154.447 139.111C164.836 135.329 176.325 140.686 180.106 151.076C180.268 151.52 180.413 151.966 180.541 152.413Z" fill="#003350"/>
<path fill-rule="evenodd" clip-rule="evenodd" d="M66.6666 65.4406C66.383 64.6613 66.7848 63.7997 67.564 63.5161L132.467 39.8933C133.246 39.6097 134.108 40.0115 134.391 40.7907C134.675 41.57 134.273 42.4316 133.494 42.7152L68.5911 66.338C67.8118 66.6216 66.9502 66.2198 66.6666 65.4406Z" fill="#195A80"/>
</g>
</g>
<defs>
<clipPath id="clip0_98_12323">
<rect width="600" height="448" fill="white"/>
</clipPath>
<clipPath id="clip1_98_12323">
<rect width="317.48" height="448" fill="white"/>
</clipPath>
</defs>
</svg>
